<svg  viewBox="0 0 50 49" fill="none" xmlns="http://www.w3.org/2000/svg">
<g id="Home - Furniture Shop - Phlox Elementor WordPress Theme-15 1" clip-path="url(#clip0_6104_62281)">
<g id="Group">
<path id="Vector" d="M24.9995 30.8648C22.696 30.8638 20.4285 30.2924 18.3995 29.2018L3.49353 21.2088C2.43542 20.6422 1.55141 19.7983 0.936248 18.7676C0.321081 17.737 -0.00206875 16.5584 0.00142492 15.3581C0.00491859 14.1578 0.334924 12.9811 0.95608 11.954C1.57724 10.927 2.46613 10.0883 3.52753 9.5278L18.4705 1.6278C20.4823 0.562688 22.7242 0.00585937 25.0005 0.00585938C27.2769 0.00585937 29.5187 0.562688 31.5305 1.6278L46.4735 9.5278C47.5349 10.0883 48.4238 10.927 49.045 11.954C49.6661 12.9811 49.9961 14.1578 49.9996 15.3581C50.0031 16.5584 49.68 17.737 49.0648 18.7676C48.4496 19.7983 47.5656 20.6422 46.5075 21.2088L31.6015 29.2088C29.5713 30.2973 27.3031 30.8662 24.9995 30.8648ZM24.9995 3.9088C23.361 3.90966 21.7475 4.31097 20.2995 5.0778L5.35353 12.9788C4.91799 13.2079 4.5531 13.5513 4.29809 13.9722C4.04307 14.3931 3.90756 14.8755 3.90612 15.3676C3.90468 15.8597 4.03736 16.3429 4.28992 16.7653C4.54247 17.1876 4.90534 17.5332 5.33953 17.7648L20.2455 25.7648C21.7071 26.5511 23.3409 26.9626 25.0005 26.9626C26.6602 26.9626 28.2939 26.5511 29.7555 25.7648L44.6615 17.7648C45.0957 17.5332 45.4586 17.1876 45.7111 16.7653C45.9637 16.3429 46.0964 15.8597 46.0949 15.3676C46.0935 14.8755 45.958 14.3931 45.703 13.9722C45.448 13.5513 45.0831 13.2079 44.6475 12.9788L29.6995 5.0748C28.2512 4.30905 26.6378 3.90878 24.9995 3.9088ZM31.5995 46.8768L48.9675 37.5608C49.4182 37.3129 49.7528 36.8972 49.8988 36.404C50.0447 35.9108 49.9903 35.3799 49.7472 34.9267C49.5041 34.4734 49.092 34.1343 48.6004 33.9831C48.1088 33.8318 47.5774 33.8806 47.1215 34.1188L29.7555 43.4348C28.2928 44.2221 26.6577 44.6342 24.9965 44.6342C23.3354 44.6342 21.7002 44.2221 20.2375 43.4348L2.86953 34.2088C2.64274 34.0853 2.3937 34.008 2.13684 33.9813C1.87997 33.9547 1.62037 33.9793 1.37306 34.0536C1.12576 34.128 0.895654 34.2507 0.69607 34.4146C0.496486 34.5784 0.331385 34.7803 0.210322 35.0084C0.0892585 35.2365 0.0146372 35.4863 -0.00922364 35.7435C-0.0330845 36.0006 -0.00571112 36.2599 0.0713123 36.5064C0.148336 36.7529 0.27348 36.9817 0.439502 37.1795C0.605524 37.3773 0.809128 37.5402 1.03853 37.6588L18.3995 46.8768C20.4283 47.9678 22.696 48.5389 24.9995 48.5389C27.3031 48.5389 29.5707 47.9678 31.5995 46.8768ZM31.5995 38.0878L48.9675 28.7718C49.4182 28.5239 49.7528 28.1082 49.8988 27.615C50.0447 27.1218 49.9903 26.5909 49.7472 26.1376C49.5041 25.6844 49.092 25.3453 48.6004 25.1941C48.1088 25.0428 47.5774 25.0916 47.1215 25.3298L29.7555 34.6458C28.2928 35.4331 26.6577 35.8452 24.9965 35.8452C23.3354 35.8452 21.7002 35.4331 20.2375 34.6458L2.86953 25.4238C2.64274 25.3003 2.3937 25.223 2.13684 25.1963C1.87997 25.1697 1.62037 25.1943 1.37306 25.2686C1.12576 25.343 0.895654 25.4657 0.69607 25.6295C0.496486 25.7934 0.331385 25.9953 0.210322 26.2234C0.0892585 26.4515 0.0146372 26.7013 -0.00922364 26.9585C-0.0330845 27.2156 -0.00571112 27.4749 0.0713123 27.7214C0.148336 27.9679 0.27348 28.1967 0.439502 28.3945C0.605524 28.5923 0.809128 28.7552 1.03853 28.8738L18.3995 38.0878C20.4283 39.1788 22.696 39.7499 24.9995 39.7499C27.3031 39.7499 29.5707 39.1788 31.5995 38.0878Z" fill="white"/>
</g>
</g>
<defs>
<clipPath id="clip0_6104_62281">
<rect width="50" height="48.541" fill="white"/>
</clipPath>
</defs>
</svg>
