<svg width="45" height="45" viewBox="0 0 48 48" fill="none" xmlns="http://www.w3.org/2000/svg">
<g id="Icon Frame">
<path id="Vector" d="M8.22412 22.2954V38.0713C8.22412 40.2495 9.9899 42.0153 12.1681 42.0153H35.832C38.0102 42.0153 39.7759 40.2495 39.7759 38.0713V22.2954" stroke="white" stroke-width="3.94398" stroke-linecap="round" stroke-linejoin="round"/>
<path id="Rectangle" d="M12.168 9.47733C12.168 6.75459 14.3752 4.54736 17.0979 4.54736V4.54736C20.9098 4.54736 23.9999 7.63748 23.9999 11.4493V14.4073H17.0979C14.3752 14.4073 12.168 12.2001 12.168 9.47733V9.47733Z" stroke="white" stroke-width="3.94398" stroke-linejoin="round"/>
<path id="Rectangle_2" d="M35.832 9.47733C35.832 6.75459 33.6248 4.54736 30.9021 4.54736V4.54736C27.0902 4.54736 24.0001 7.63748 24.0001 11.4493V14.4073H30.9021C33.6248 14.4073 35.832 12.2001 35.832 9.47733V9.47733Z" stroke="white" stroke-width="3.94398" stroke-linejoin="round"/>
<path id="Rectangle_3" d="M6.25195 14.4077H41.7477V22.2957H6.25195V14.4077Z" stroke="white" stroke-width="3.94398" stroke-linecap="round" stroke-linejoin="round"/>
<path id="Vector_2" d="M24 22.2954V42.0153" stroke="white" stroke-width="3.94398" stroke-linecap="round" stroke-linejoin="round"/>
</g>
</svg>
