<svg  viewBox="0 0 50 48" fill="none" xmlns="http://www.w3.org/2000/svg">
<g id="Home - Furniture Shop - Phlox Elementor WordPress Theme-13 1" clip-path="url(#clip0_6104_62271)">
<path id="Vector" d="M38.281 39.453H23.438C22.92 39.453 22.4233 39.2472 22.057 38.881C21.6908 38.5147 21.485 38.018 21.485 37.5C21.485 36.982 21.6908 36.4853 22.057 36.119C22.4233 35.7528 22.92 35.547 23.438 35.547H38.281C40.3523 35.5449 42.3382 34.7212 43.8029 33.2566C45.2677 31.7921 46.0916 29.8063 46.094 27.735V11.719C46.0916 9.64786 45.2678 7.66223 43.8033 6.19771C42.3388 4.73319 40.3531 3.90938 38.282 3.907H11.719C9.64769 3.90938 7.66191 4.73333 6.19736 6.19807C4.73281 7.6628 3.90912 9.64869 3.907 11.72V26.758C3.90726 27.017 4.01028 27.2654 4.19345 27.4486C4.37661 27.6317 4.62496 27.7347 4.884 27.735H10.743C11.261 27.735 11.7577 27.9408 12.124 28.307C12.4902 28.6733 12.696 29.17 12.696 29.688C12.696 30.206 12.4902 30.7027 12.124 31.069C11.7577 31.4352 11.261 31.641 10.743 31.641H4.883C3.58835 31.6397 2.34711 31.1248 1.43166 30.2093C0.516206 29.2939 0.00132363 28.0526 0 26.758L0 11.719C0.00344092 8.61198 1.23922 5.63321 3.43622 3.43622C5.63321 1.23922 8.61198 0.00344092 11.719 0H38.281C41.388 0.00344092 44.3668 1.23922 46.5638 3.43622C48.7608 5.63321 49.9966 8.61198 50 11.719V27.734C49.9966 30.841 48.7608 33.8198 46.5638 36.0168C44.3668 38.2138 41.388 39.4496 38.281 39.453ZM17.578 37.5C17.578 36.982 17.3722 36.4853 17.006 36.119C16.6397 35.7528 16.143 35.547 15.625 35.547H1.953C1.43503 35.547 0.938279 35.7528 0.57202 36.119C0.205762 36.4853 0 36.982 0 37.5C0 38.018 0.205762 38.5147 0.57202 38.881C0.938279 39.2472 1.43503 39.453 1.953 39.453H15.625C16.143 39.453 16.6397 39.2472 17.006 38.881C17.3722 38.5147 17.578 38.018 17.578 37.5ZM23.437 45.217C23.437 44.9605 23.3865 44.7066 23.2883 44.4696C23.1902 44.2327 23.0463 44.0174 22.865 43.836C22.6836 43.6547 22.4683 43.5108 22.2314 43.4127C21.9944 43.3145 21.7405 43.264 21.484 43.264H1.953C1.43503 43.264 0.938279 43.4698 0.57202 43.836C0.205762 44.2023 0 44.699 0 45.217C0 45.735 0.205762 46.2317 0.57202 46.598C0.938279 46.9642 1.43503 47.17 1.953 47.17H21.484C21.7407 47.1701 21.995 47.1196 22.2322 47.0214C22.4693 46.9232 22.6848 46.7792 22.8663 46.5976C23.0478 46.416 23.1917 46.2005 23.2898 45.9632C23.3879 45.726 23.4383 45.4717 23.438 45.215L23.437 45.217ZM32.812 19.729C32.8126 18.1836 32.3549 16.6727 31.4967 15.3874C30.6385 14.1022 29.4184 13.1003 27.9908 12.5085C26.5631 11.9167 24.992 11.7616 23.4762 12.0628C21.9604 12.364 20.568 13.108 19.4751 14.2007C18.3822 15.2933 17.6378 16.6855 17.3362 18.2013C17.0346 19.717 17.1893 21.2881 17.7807 22.7159C18.3721 24.1437 19.3737 25.364 20.6587 26.2225C21.9438 27.0811 23.4546 27.5392 25 27.539C27.0713 27.5369 29.0572 26.7132 30.5219 25.2486C31.9867 23.7841 32.8106 21.7983 32.813 19.727L32.812 19.729ZM28.906 19.729C28.9054 20.5014 28.6758 21.2563 28.2463 21.8982C27.8167 22.5402 27.2065 23.0404 26.4927 23.3355C25.7789 23.6307 24.9936 23.7076 24.2361 23.5566C23.4786 23.4055 22.7829 23.0333 22.237 22.4869C21.691 21.9405 21.3193 21.2445 21.1688 20.4869C21.0184 19.7293 21.0959 18.9441 21.3916 18.2305C21.6873 17.517 22.188 16.9071 22.8303 16.4781C23.4725 16.049 24.2276 15.82 25 15.82C26.0357 15.8213 27.0286 16.2334 27.7609 16.9659C28.4931 17.6983 28.9049 18.6913 28.906 19.727V19.729ZM42.285 13.186C42.285 12.668 42.0792 12.1713 41.713 11.805C41.3467 11.4388 40.85 11.233 40.332 11.233C39.9436 11.2325 39.5713 11.078 39.2967 10.8033C39.022 10.5287 38.8675 10.1564 38.867 9.768C38.867 9.25003 38.6612 8.75328 38.295 8.38702C37.9287 8.02076 37.432 7.815 36.914 7.815C36.396 7.815 35.8993 8.02076 35.533 8.38702C35.1668 8.75328 34.961 9.25003 34.961 9.768C34.9626 11.192 35.529 12.5572 36.5359 13.5641C37.5428 14.571 38.908 15.1374 40.332 15.139C40.5886 15.139 40.8428 15.0884 41.0798 14.9901C41.3169 14.8919 41.5323 14.7478 41.7137 14.5663C41.8951 14.3847 42.0389 14.1692 42.1369 13.932C42.2349 13.6948 42.2853 13.4406 42.285 13.184V13.186ZM15.234 9.961C15.234 9.44303 15.0282 8.94628 14.662 8.58002C14.2957 8.21376 13.799 8.008 13.281 8.008C12.763 8.008 12.2663 8.21376 11.9 8.58002C11.5338 8.94628 11.328 9.44303 11.328 9.961C11.3275 10.3494 11.173 10.7217 10.8983 10.9963C10.6237 11.271 10.2514 11.4255 9.863 11.426C9.34503 11.426 8.84828 11.6318 8.48202 11.998C8.11576 12.3643 7.91 12.861 7.91 13.379C7.91 13.897 8.11576 14.3937 8.48202 14.76C8.84828 15.1262 9.34503 15.332 9.863 15.332C11.287 15.3304 12.6522 14.764 13.6591 13.7571C14.666 12.7502 15.2324 11.385 15.234 9.961ZM38.867 29.688C38.8675 29.2996 39.022 28.9273 39.2967 28.6527C39.5713 28.378 39.9436 28.2235 40.332 28.223C40.85 28.223 41.3467 28.0172 41.713 27.651C42.0792 27.2847 42.285 26.788 42.285 26.27C42.285 25.752 42.0792 25.2553 41.713 24.889C41.3467 24.5228 40.85 24.317 40.332 24.317C38.908 24.3186 37.5428 24.885 36.5359 25.8919C35.529 26.8988 34.9626 28.264 34.961 29.688C34.961 30.206 35.1668 30.7027 35.533 31.069C35.8993 31.4352 36.396 31.641 36.914 31.641C37.432 31.641 37.9287 31.4352 38.295 31.069C38.6612 30.7027 38.867 30.206 38.867 29.688Z" fill="white"/>
</g>
<defs>
<clipPath id="clip0_6104_62271">
<rect width="50" height="47.168" fill="white"/>
</clipPath>
</defs>
</svg>
