<svg  viewBox="0 0 41 50" fill="none" xmlns="http://www.w3.org/2000/svg">
<g id="Home - Furniture Shop - Phlox Elementor WordPress Theme-14 1" clip-path="url(#clip0_6104_62276)">
<path id="Vector" d="M29.4001 50H11.6001C8.50906 49.9802 5.55205 48.7353 3.37751 46.5385C1.20296 44.3416 -0.0116292 41.3721 8.39384e-05 38.281V11.719C-0.0116292 8.62793 1.20296 5.65838 3.37751 3.46152C5.55205 1.26467 8.50906 0.0198349 11.6001 0L29.4001 0C32.4911 0.0198349 35.4481 1.26467 37.6227 3.46152C39.7972 5.65838 41.0118 8.62793 41.0001 11.719V38.281C41.0118 41.3721 39.7972 44.3416 37.6227 46.5385C35.4481 48.7353 32.4911 49.9802 29.4001 50ZM11.6001 3.906C9.53902 3.91843 7.56706 4.74789 6.11678 6.21241C4.66651 7.67693 3.85636 9.65692 3.86408 11.718V38.281C3.8561 40.3423 4.66613 42.3225 6.11643 43.7872C7.56673 45.252 9.53885 46.0816 11.6001 46.094H29.4001C31.4611 46.0816 33.4331 45.2521 34.8834 43.7876C36.3337 42.3231 37.1438 40.3431 37.1361 38.282V11.719C37.1441 9.65775 36.334 7.6775 34.8837 6.21277C33.4334 4.74803 31.4613 3.91843 29.4001 3.906H11.6001ZM33.1671 17.969C33.1695 17.4536 32.9671 16.9583 32.6044 16.5921C32.2418 16.2259 31.7485 16.0186 31.2331 16.016H27.9461C27.1733 16.011 26.4341 15.6997 25.8904 15.1505C25.3468 14.6012 25.0432 13.8588 25.0461 13.086V9.766C25.0461 9.51202 24.9961 9.26053 24.8989 9.02589C24.8017 8.79125 24.6592 8.57804 24.4796 8.39846C24.3 8.21887 24.0868 8.07641 23.8522 7.97922C23.6176 7.88202 23.3661 7.832 23.1121 7.832C22.8581 7.832 22.6066 7.88202 22.372 7.97922C22.1373 8.07641 21.9241 8.21887 21.7445 8.39846C21.5649 8.57804 21.4225 8.79125 21.3253 9.02589C21.2281 9.26053 21.1781 9.51202 21.1781 9.766V13.086C21.1712 14.8895 21.88 16.6222 23.149 17.9037C24.418 19.1853 26.1436 19.9112 27.9471 19.922H31.2351C31.7501 19.9188 32.2429 19.7114 32.6051 19.3452C32.9674 18.979 33.1695 18.4841 33.1671 17.969ZM22.9321 36L30.5751 28.233C30.9368 27.8638 31.1386 27.367 31.1369 26.8502C31.1352 26.3333 30.9302 25.8379 30.5661 25.471C30.3868 25.2904 30.1734 25.1473 29.9383 25.0499C29.7032 24.9525 29.4512 24.9028 29.1967 24.9036C28.9422 24.9045 28.6905 24.9559 28.4561 25.0548C28.2216 25.1537 28.0092 25.2983 27.8311 25.48L20.1871 33.249C19.9906 33.4512 19.7556 33.612 19.4959 33.7218C19.2361 33.8316 18.957 33.8881 18.6751 33.8881C18.3931 33.8881 18.114 33.8316 17.8543 33.7218C17.5946 33.612 17.3596 33.4512 17.1631 33.249L13.4631 29.478C13.2852 29.2961 13.0729 29.1513 12.8386 29.0521C12.6042 28.9529 12.3525 28.9013 12.0981 28.9001C11.8436 28.899 11.5915 28.9485 11.3563 29.0456C11.1211 29.1427 10.9076 29.2856 10.7281 29.466C10.3636 29.8325 10.158 30.3277 10.1558 30.8445C10.1535 31.3614 10.3548 31.8584 10.7161 32.228L14.4161 36C14.9703 36.568 15.6325 37.0194 16.3637 37.3275C17.095 37.6357 17.8805 37.7945 18.6741 37.7945C19.4676 37.7945 20.2532 37.6357 20.9844 37.3275C21.7157 37.0194 22.3779 36.568 22.9321 36Z" fill="white"/>
</g>
<defs>
<clipPath id="clip0_6104_62276">
<rect width="41" height="50" fill="white"/>
</clipPath>
</defs>
</svg>
