<svg width="45" height="45" viewBox="0 0 61 61" fill="none" xmlns="http://www.w3.org/2000/svg">
<g id="Icon Frame">
<path id="Vector" d="M5.56934 18.0933V16.5733C4.72986 16.5733 4.04934 17.2538 4.04934 18.0933H5.56934ZM33.2637 18.0933H34.7837C34.7837 17.2538 34.1031 16.5733 33.2637 16.5733V18.0933ZM33.2637 23.1286V21.6086C32.8605 21.6086 32.4739 21.7687 32.1889 22.0538C31.9038 22.3388 31.7437 22.7255 31.7437 23.1286H33.2637ZM5.56934 19.6133H33.2637V16.5733H5.56934V19.6133ZM31.7437 18.0933V48.3052H34.7837V18.0933H31.7437ZM7.08934 43.2699V18.0933H4.04934V43.2699H7.08934ZM33.2637 24.6486H45.852V21.6086H33.2637V24.6486ZM54.4026 33.1993V43.2699H57.4426V33.1993H54.4026ZM34.7837 48.3052L34.7837 23.1286H31.7437L31.7437 48.3052L34.7837 48.3052ZM48.3377 50.791C46.9649 52.1638 44.7391 52.1638 43.3663 50.791L41.2167 52.9406C43.7767 55.5006 47.9273 55.5006 50.4873 52.9406L48.3377 50.791ZM43.3663 45.8195C44.7391 44.4467 46.9649 44.4467 48.3377 45.8195L50.4873 43.6699C47.9273 41.1099 43.7767 41.1099 41.2167 43.6699L43.3663 45.8195ZM18.1257 50.791C16.7529 52.1638 14.5271 52.1638 13.1543 50.791L11.0047 52.9406C13.5647 55.5006 17.7153 55.5006 20.2753 52.9406L18.1257 50.791ZM13.1543 45.8195C14.5271 44.4467 16.7529 44.4467 18.1257 45.8195L20.2753 43.6699C17.7153 41.1099 13.5647 41.1099 11.0047 43.6699L13.1543 45.8195ZM48.3377 45.8195C49.0244 46.5062 49.3673 47.4032 49.3673 48.3052H52.4073C52.4073 46.6299 51.767 44.9496 50.4873 43.6699L48.3377 45.8195ZM49.3673 48.3052C49.3673 49.2072 49.0244 50.1042 48.3377 50.791L50.4873 52.9406C51.767 51.6609 52.4073 49.9805 52.4073 48.3052H49.3673ZM40.8166 46.7852H33.2637V49.8252H40.8166V46.7852ZM43.3663 50.791C42.6796 50.1042 42.3366 49.2072 42.3366 48.3052H39.2966C39.2966 49.9805 39.937 51.6609 41.2167 52.9406L43.3663 50.791ZM42.3366 48.3052C42.3366 47.4032 42.6796 46.5062 43.3663 45.8195L41.2167 43.6699C39.937 44.9496 39.2966 46.6299 39.2966 48.3052H42.3366ZM13.1543 50.791C12.4676 50.1042 12.1247 49.2072 12.1247 48.3052H9.08467C9.08467 49.9805 9.72497 51.6609 11.0047 52.9406L13.1543 50.791ZM12.1247 48.3052C12.1247 47.4032 12.4676 46.5062 13.1543 45.8195L11.0047 43.6699C9.72497 44.9496 9.08467 46.6299 9.08467 48.3052H12.1247ZM33.2637 46.7852H20.6753V49.8252H33.2637V46.7852ZM18.1257 45.8195C18.8124 46.5062 19.1553 47.4032 19.1553 48.3052H22.1953C22.1953 46.6299 21.555 44.9496 20.2753 43.6699L18.1257 45.8195ZM19.1553 48.3052C19.1553 49.2072 18.8124 50.1042 18.1257 50.791L20.2753 52.9406C21.555 51.6609 22.1953 49.9805 22.1953 48.3052H19.1553ZM54.4026 43.2699C54.4026 45.2114 52.8288 46.7852 50.8873 46.7852V49.8252C54.5077 49.8252 57.4426 46.8903 57.4426 43.2699H54.4026ZM45.852 24.6486C50.5744 24.6486 54.4026 28.4769 54.4026 33.1993H57.4426C57.4426 26.7979 52.2533 21.6086 45.852 21.6086V24.6486ZM4.04934 43.2699C4.04934 46.8903 6.98426 49.8252 10.6047 49.8252V46.7852C8.6632 46.7852 7.08934 45.2114 7.08934 43.2699H4.04934Z" fill="white"/>
<path id="Rectangle" d="M9.34595 10.5401C9.34595 9.14966 10.4731 8.02246 11.8636 8.02246V8.02246C16.035 8.02246 19.4166 11.4041 19.4166 15.5755V18.0931H16.8989C12.7275 18.0931 9.34595 14.7115 9.34595 10.5401V10.5401Z" stroke="white" stroke-width="3.04" stroke-linejoin="round"/>
<path id="Rectangle_2" d="M29.4873 10.5401C29.4873 9.14966 28.3601 8.02246 26.9696 8.02246V8.02246C22.7982 8.02246 19.4166 11.4041 19.4166 15.5755V18.0931H21.9343C26.1057 18.0931 29.4873 14.7115 29.4873 10.5401V10.5401Z" stroke="white" stroke-width="3.04" stroke-linejoin="round"/>
</g>
</svg>
