<svg  viewBox="0 0 50 50" fill="none" xmlns="http://www.w3.org/2000/svg">
<g id="Home - Furniture Shop - Phlox Elementor WordPress Theme-12 1" clip-path="url(#clip0_6104_62263)">
<g id="Group">
<path id="Vector" d="M42.1876 25.0001C42.1876 25.5181 41.9818 26.0148 41.6156 26.3811C41.2493 26.7474 40.7526 26.9531 40.2346 26.9531H18.5116C18.798 31.1401 19.6042 35.2752 20.9116 39.2631C20.9905 39.5087 21.0199 39.7674 20.9983 40.0244C20.9766 40.2814 20.9042 40.5315 20.7854 40.7604C20.6665 40.9893 20.5035 41.1923 20.3057 41.3579C20.108 41.5234 19.8794 41.6482 19.6332 41.7249C19.387 41.8016 19.128 41.8288 18.8712 41.8049C18.6144 41.781 18.3649 41.7065 18.1371 41.5856C17.9092 41.4648 17.7076 41.3 17.5438 41.1008C17.3799 40.9017 17.2572 40.672 17.1826 40.4251C15.7539 36.0622 14.8863 31.5351 14.6006 26.9531H9.76661C9.24865 26.9531 8.75189 26.7474 8.38563 26.3811C8.01938 26.0148 7.81361 25.5181 7.81361 25.0001C7.81361 24.4821 8.01938 23.9854 8.38563 23.6191C8.75189 23.2529 9.24865 23.0471 9.76661 23.0471H14.6006C14.8872 18.4632 15.7589 13.9348 17.1946 9.57211C17.269 9.32466 17.3917 9.09443 17.5558 8.89475C17.7198 8.69508 17.9218 8.52994 18.15 8.40889C18.3783 8.28785 18.6284 8.2133 18.8857 8.18958C19.143 8.16586 19.4024 8.19344 19.649 8.27071C19.8955 8.34798 20.1243 8.47341 20.3221 8.63974C20.5198 8.80606 20.6826 9.00998 20.801 9.23966C20.9193 9.46934 20.9909 9.72023 21.0117 9.97779C21.0324 10.2354 21.0018 10.4945 20.9216 10.7401C19.6083 14.726 18.7983 18.8603 18.5106 23.0471H31.4946C31.2599 18.863 30.4868 14.7266 29.1946 10.7401C29.1145 10.4945 29.0839 10.2354 29.1046 9.97779C29.1253 9.72023 29.1969 9.46934 29.3153 9.23966C29.4336 9.00998 29.5964 8.80606 29.7942 8.63974C29.9919 8.47341 30.2207 8.34798 30.4673 8.27071C30.7138 8.19344 30.9733 8.16586 31.2306 8.18958C31.4879 8.2133 31.7379 8.28785 31.9662 8.40889C32.1945 8.52994 32.3965 8.69508 32.5605 8.89475C32.7245 9.09443 32.8472 9.32466 32.9216 9.57211C34.3361 13.9357 35.1722 18.466 35.4086 23.0471H40.2376C40.7551 23.0479 41.251 23.254 41.6167 23.6202C41.9823 23.9864 42.1876 24.4827 42.1876 25.0001ZM42.6776 7.32211C37.9891 2.63375 31.6302 -9.37657e-05 24.9998 2.50362e-09C18.3693 9.37707e-05 12.0105 2.63412 7.32211 7.32261C2.63375 12.0111 -9.37657e-05 18.37 2.50362e-09 25.0005C9.37707e-05 31.6309 2.63412 37.9897 7.32261 42.6781C9.63876 45.0068 12.3938 46.853 15.4282 48.1098C18.4626 49.3666 21.7162 50.0091 25.0006 50.0001C25.3576 50.0001 25.7186 49.9921 26.0746 49.9771C26.5789 49.9376 27.0482 49.704 27.3837 49.3255C27.7192 48.9469 27.8948 48.4529 27.8734 47.9475C27.852 47.4421 27.6354 46.9647 27.2691 46.6159C26.9028 46.267 26.4154 46.0739 25.9096 46.0771C25.6096 46.0901 25.3026 46.0961 25.0006 46.0961C20.8287 46.0961 16.7505 44.859 13.2816 42.5413C9.81278 40.2235 7.1091 36.9292 5.51249 33.0749C3.91588 29.2206 3.49803 24.9794 4.31178 20.8876C5.12554 16.7958 7.13435 13.0372 10.0842 10.0871C13.034 7.13698 16.7924 5.12782 20.8842 4.31367C24.9759 3.49953 29.2171 3.91698 33.0716 5.51323C36.926 7.10947 40.2206 9.81283 42.5387 13.2815C44.8567 16.7501 46.0942 20.8282 46.0946 25.0001C46.0946 25.5181 46.3004 26.0148 46.6666 26.3811C47.0329 26.7474 47.5296 26.9531 48.0476 26.9531C48.5656 26.9531 49.0623 26.7474 49.4286 26.3811C49.7948 26.0148 50.0006 25.5181 50.0006 25.0001C50.0096 21.7157 49.3671 18.4621 48.1103 15.4277C46.8535 12.3933 45.0073 9.63826 42.6786 7.32211H42.6776Z" fill="white"/>
<path id="Vector_2" d="M49.4287 31.0408C49.2473 30.8594 49.032 30.7156 48.7951 30.6174C48.5581 30.5193 48.3042 30.4688 48.0477 30.4688C47.7912 30.4688 47.5372 30.5193 47.3003 30.6174C47.0633 30.7156 46.848 30.8594 46.6667 31.0408L43.6867 34.0208L34.4487 32.2608C33.9801 32.1708 33.4947 32.2555 33.0842 32.4989C32.6738 32.7423 32.3667 33.1275 32.2208 33.5819C32.075 34.0362 32.1005 34.5283 32.2927 34.9651C32.4848 35.4019 32.8302 35.7532 33.2637 35.9528L39.0717 38.6358L34.6717 43.0358L33.8067 42.1708C33.4404 41.8045 32.9437 41.5988 32.4257 41.5988C31.9077 41.5988 31.4109 41.8045 31.0447 42.1708C30.6784 42.537 30.4727 43.0338 30.4727 43.5518C30.4727 44.0698 30.6784 44.5665 31.0447 44.9328L35.5367 49.4248C35.9029 49.791 36.3997 49.9968 36.9177 49.9968C37.4357 49.9968 37.9324 49.791 38.2987 49.4248C38.6649 49.0585 38.8707 48.5618 38.8707 48.0438C38.8707 47.5258 38.6649 47.029 38.2987 46.6628L37.4337 45.7978L41.8337 41.3978L44.5167 47.2058C44.7162 47.6392 45.0676 47.9847 45.5044 48.1768C45.9412 48.3689 46.4332 48.3945 46.8876 48.2487C47.3419 48.1028 47.7272 47.7957 47.9706 47.3852C48.214 46.9748 48.2987 46.4894 48.2087 46.0208L46.4487 36.7828L49.4287 33.8028C49.61 33.6214 49.7539 33.4061 49.8521 33.1692C49.9502 32.9322 50.0007 32.6783 50.0007 32.4218C50.0007 32.1653 49.9502 31.9114 49.8521 31.6744C49.7539 31.4375 49.61 31.2222 49.4287 31.0408Z" fill="white"/>
</g>
</g>
<defs>
<clipPath id="clip0_6104_62263">
<rect width="50" height="50" fill="white"/>
</clipPath>
</defs>
</svg>
