<svg width="45" height="45" viewBox="0 0 66 67" fill="none" xmlns="http://www.w3.org/2000/svg">
<g id="loma/line/wallet _remove">
<g id="wallet _remove">
<path id="Rectangle" d="M39.9195 55.1836H18.8948C14.6724 55.1836 11.2495 51.7607 11.2495 47.5383V32.7938C11.2495 28.5714 14.6724 25.1484 18.8948 25.1484H47.2917C51.5141 25.1484 54.937 28.5714 54.937 32.7938V40.166" stroke="white" stroke-width="4.09571" stroke-linecap="round"/>
<path id="Rectangle_2" d="M11.2495 31.9746V23.7832C11.2495 20.0132 14.3057 16.957 18.0757 16.957H20.8062H23.1953M49.4761 24.4658V23.7832C49.4761 20.0132 46.4199 16.957 42.6499 16.957H39.9195" stroke="white" stroke-width="4.09571"/>
<path id="Rectangle_3" d="M11.2495 36.0703H18.0757C20.3377 36.0703 22.1714 37.904 22.1714 40.166V40.166C22.1714 42.428 20.3377 44.2617 18.0757 44.2617H11.2495V36.0703Z" stroke="white" stroke-width="4.09571"/>
<path id="Vector" d="M19.4409 23.7832L23.2255 12.4296C23.4113 11.8721 23.933 11.4961 24.5206 11.4961H39.4748C40.3818 11.4961 41.0366 12.3643 40.7875 13.2364L38.5542 21.0527L37.189 25.1484" stroke="white" stroke-width="4.09571" stroke-linecap="round"/>
<path id="Vector_2" d="M54.0546 50.6623L46.7456 50.6221" stroke="white" stroke-width="4.09571" stroke-miterlimit="10" stroke-linecap="round" stroke-linejoin="round"/>
</g>
</g>
</svg>
