<svg width="14" height="14" viewBox="0 0 14 14" fill="none" xmlns="http://www.w3.org/2000/svg">
<g id="vuesax/outline/calendar">
<g id="calendar">
<path id="Vector" d="M4.66797 3.35449C4.4288 3.35449 4.23047 3.15616 4.23047 2.91699V1.16699C4.23047 0.927826 4.4288 0.729492 4.66797 0.729492C4.90714 0.729492 5.10547 0.927826 5.10547 1.16699V2.91699C5.10547 3.15616 4.90714 3.35449 4.66797 3.35449Z" fill="#292D32"/>
<path id="Vector_2" d="M9.33203 3.35449C9.09286 3.35449 8.89453 3.15616 8.89453 2.91699V1.16699C8.89453 0.927826 9.09286 0.729492 9.33203 0.729492C9.5712 0.729492 9.76953 0.927826 9.76953 1.16699V2.91699C9.76953 3.15616 9.5712 3.35449 9.33203 3.35449Z" fill="#292D32"/>
<path id="Vector_3" d="M4.95833 8.45835C4.8825 8.45835 4.80667 8.44086 4.73667 8.41169C4.66083 8.38253 4.6025 8.34168 4.54417 8.28918C4.43917 8.17835 4.375 8.03252 4.375 7.87502C4.375 7.79919 4.3925 7.72335 4.42167 7.65335C4.45083 7.58335 4.49167 7.51919 4.54417 7.46086C4.6025 7.40836 4.66083 7.36751 4.73667 7.33834C4.94667 7.25084 5.20917 7.29752 5.3725 7.46086C5.4775 7.57169 5.54167 7.72335 5.54167 7.87502C5.54167 7.91002 5.53583 7.95086 5.53 7.99169C5.52417 8.02669 5.5125 8.06169 5.495 8.09669C5.48333 8.13169 5.46583 8.16668 5.4425 8.20168C5.425 8.23085 5.39583 8.26001 5.3725 8.28918C5.26167 8.39418 5.11 8.45835 4.95833 8.45835Z" fill="#292D32"/>
<path id="Vector_4" d="M7.0013 8.45802C6.92547 8.45802 6.84963 8.44052 6.77963 8.41136C6.7038 8.38219 6.64547 8.34134 6.58714 8.28884C6.48214 8.17801 6.41797 8.03218 6.41797 7.87468C6.41797 7.79885 6.43547 7.72301 6.46464 7.65301C6.4938 7.58301 6.53464 7.51885 6.58714 7.46052C6.64547 7.40802 6.7038 7.36717 6.77963 7.33801C6.98963 7.24467 7.25213 7.29719 7.41547 7.46052C7.52047 7.57135 7.58464 7.72302 7.58464 7.87468C7.58464 7.90968 7.5788 7.95052 7.57297 7.99136C7.56714 8.02636 7.55547 8.06135 7.53797 8.09635C7.5263 8.13135 7.5088 8.16635 7.48547 8.20135C7.46797 8.23051 7.4388 8.25968 7.41547 8.28884C7.30463 8.39384 7.15297 8.45802 7.0013 8.45802Z" fill="#292D32"/>
<path id="Vector_5" d="M9.04036 8.45802C8.96453 8.45802 8.8887 8.44052 8.8187 8.41136C8.74286 8.38219 8.68453 8.34134 8.6262 8.28884C8.60287 8.25968 8.57953 8.23051 8.5562 8.20135C8.53286 8.16635 8.51537 8.13135 8.5037 8.09635C8.4862 8.06135 8.47453 8.02636 8.4687 7.99136C8.46286 7.95052 8.45703 7.90968 8.45703 7.87468C8.45703 7.72302 8.5212 7.57135 8.6262 7.46052C8.68453 7.40802 8.74286 7.36717 8.8187 7.33801C9.03453 7.24467 9.2912 7.29719 9.45453 7.46052C9.55953 7.57135 9.6237 7.72302 9.6237 7.87468C9.6237 7.90968 9.61786 7.95052 9.61203 7.99136C9.6062 8.02636 9.59453 8.06135 9.57703 8.09635C9.56536 8.13135 9.54787 8.16635 9.52453 8.20135C9.50703 8.23051 9.47786 8.25968 9.45453 8.28884C9.3437 8.39384 9.19203 8.45802 9.04036 8.45802Z" fill="#292D32"/>
<path id="Vector_6" d="M4.95833 10.5002C4.8825 10.5002 4.80667 10.4827 4.73667 10.4535C4.66667 10.4244 4.6025 10.3835 4.54417 10.331C4.43917 10.2202 4.375 10.0685 4.375 9.91686C4.375 9.84102 4.3925 9.76519 4.42167 9.69519C4.45083 9.61935 4.49167 9.5552 4.54417 9.5027C4.76 9.28686 5.15667 9.28686 5.3725 9.5027C5.4775 9.61353 5.54167 9.76519 5.54167 9.91686C5.54167 10.0685 5.4775 10.2202 5.3725 10.331C5.26167 10.436 5.11 10.5002 4.95833 10.5002Z" fill="#292D32"/>
<path id="Vector_7" d="M7.0013 10.5002C6.84964 10.5002 6.69797 10.436 6.58714 10.331C6.48214 10.2202 6.41797 10.0685 6.41797 9.91686C6.41797 9.84102 6.43547 9.76519 6.46464 9.69519C6.4938 9.61935 6.53464 9.5552 6.58714 9.5027C6.80297 9.28686 7.19963 9.28686 7.41547 9.5027C7.46797 9.5552 7.5088 9.61935 7.53797 9.69519C7.56713 9.76519 7.58464 9.84102 7.58464 9.91686C7.58464 10.0685 7.52047 10.2202 7.41547 10.331C7.30463 10.436 7.15297 10.5002 7.0013 10.5002Z" fill="#292D32"/>
<path id="Vector_8" d="M9.04036 10.5002C8.8887 10.5002 8.73703 10.436 8.6262 10.331C8.5737 10.2785 8.53287 10.2144 8.5037 10.1385C8.47453 10.0685 8.45703 9.99269 8.45703 9.91686C8.45703 9.84103 8.47453 9.76519 8.5037 9.69519C8.53287 9.61936 8.5737 9.5552 8.6262 9.5027C8.76037 9.36853 8.96453 9.30435 9.1512 9.34519C9.19203 9.35102 9.22703 9.36269 9.26203 9.38019C9.29703 9.39185 9.33203 9.40937 9.36703 9.4327C9.3962 9.4502 9.42536 9.47937 9.45453 9.5027C9.55953 9.61353 9.6237 9.76519 9.6237 9.91686C9.6237 10.0685 9.55953 10.2202 9.45453 10.331C9.3437 10.436 9.19203 10.5002 9.04036 10.5002Z" fill="#292D32"/>
<path id="Vector_9" d="M11.9596 5.74023H2.04297C1.8038 5.74023 1.60547 5.5419 1.60547 5.30273C1.60547 5.06357 1.8038 4.86523 2.04297 4.86523H11.9596C12.1988 4.86523 12.3971 5.06357 12.3971 5.30273C12.3971 5.5419 12.1988 5.74023 11.9596 5.74023Z" fill="#292D32"/>
<path id="Vector_10" d="M9.33333 13.2712H4.66667C2.5375 13.2712 1.3125 12.0462 1.3125 9.91699V4.95866C1.3125 2.82949 2.5375 1.60449 4.66667 1.60449H9.33333C11.4625 1.60449 12.6875 2.82949 12.6875 4.95866V9.91699C12.6875 12.0462 11.4625 13.2712 9.33333 13.2712ZM4.66667 2.47949C2.99833 2.47949 2.1875 3.29033 2.1875 4.95866V9.91699C2.1875 11.5853 2.99833 12.3962 4.66667 12.3962H9.33333C11.0017 12.3962 11.8125 11.5853 11.8125 9.91699V4.95866C11.8125 3.29033 11.0017 2.47949 9.33333 2.47949H4.66667Z" fill="#292D32"/>
</g>
</g>
</svg>
