<svg width="20" height="20" viewBox="0 0 20 20" fill="none" xmlns="http://www.w3.org/2000/svg">
<g id="up-arrow 2" clip-path="url(#clip0_8397_39799)">
<g id="Group">
<g id="Group_2">
<path id="Vector" d="M4.68124 6.97804L0.720965 10.728C0.720738 10.7282 0.720548 10.7285 0.720283 10.7287C0.423482 11.0106 0.424429 11.4687 0.720359 11.7497C0.720586 11.7499 0.720776 11.7501 0.721041 11.7503L4.68132 15.5003C4.978 15.7813 5.45792 15.7802 5.7532 15.4979C6.04849 15.2156 6.04735 14.759 5.75066 14.478L3.09173 11.9603H19.1429C19.5615 11.9603 19.9008 11.6375 19.9008 11.2392C19.9008 10.8409 19.5615 10.518 19.1429 10.518H3.09173L5.75059 8.00034C6.04728 7.71938 6.04841 7.26279 5.75313 6.98049C5.4578 6.69812 4.97789 6.69715 4.68124 6.97804Z" fill="#2B0000"/>
</g>
</g>
</g>
<defs>
<clipPath id="clip0_8397_39799">
<rect width="18.4615" height="19.4027" fill="white" transform="matrix(0 -1 1 0 0.498047 19.4602)"/>
</clipPath>
</defs>
</svg>
