<svg width="20" height="19" viewBox="0 0 20 19" fill="none" xmlns="http://www.w3.org/2000/svg">
<g id="up-arrow 2" clip-path="url(#clip0_8397_39803)">
<g id="Group">
<g id="Group_2">
<path id="Vector" d="M15.2191 6.2472L19.1794 9.9972C19.1797 9.99741 19.1798 9.99767 19.1801 9.99788C19.4769 10.2798 19.476 10.7379 19.18 11.0188C19.1798 11.019 19.1796 11.0193 19.1793 11.0195L15.2191 14.7695C14.9224 15.0504 14.4425 15.0494 14.1472 14.767C13.8519 14.4847 13.853 14.0282 14.1497 13.7472L16.8087 11.2295H0.757533C0.338934 11.2295 -0.000385811 10.9066 -0.000385811 10.5083C-0.000385811 10.1101 0.338934 9.7872 0.757533 9.7872H16.8087L14.1498 7.26951C13.8531 6.98855 13.852 6.53195 14.1473 6.24966C14.4426 5.96729 14.9225 5.96632 15.2191 6.2472Z" fill="#9C0646"/>
</g>
</g>
</g>
<defs>
<clipPath id="clip0_8397_39803">
<rect width="18.4615" height="19.4027" fill="white" transform="matrix(0 -1 -1 0 19.4023 18.7294)"/>
</clipPath>
</defs>
</svg>
