<svg width="20" height="21" viewBox="0 0 20 21" fill="none" xmlns="http://www.w3.org/2000/svg">
<g id="1 - Light / heart">
<path id="heart-Light" d="M16.5139 4.87917C15.5155 3.66667 14.128 3 12.6062 3C11.6487 3 10.7245 3.2425 9.91611 3.70333C9.10774 3.2425 8.18353 3 7.22598 3C5.70424 3 4.31668 3.6675 3.3183 4.87917C2.22741 6.20334 1.77405 8.01167 2.1074 9.7175C2.90327 13.7975 7.08596 16.6633 8.84772 17.7067C9.17773 17.9017 9.5461 17.9992 9.91611 17.9992C10.2861 17.9992 10.6553 17.9017 10.9845 17.7067C12.7454 16.6642 16.9281 13.7983 17.724 9.7175C18.0573 8.01167 17.6048 6.20334 16.5139 4.87917ZM16.9065 9.55749C16.1756 13.3067 12.2246 16.0033 10.5595 16.9892C10.162 17.2242 9.66943 17.2242 9.27191 16.9892C7.60682 16.0033 3.65663 13.3067 2.92493 9.55749C2.63908 8.09416 3.02661 6.54251 3.96082 5.40835C4.79837 4.39168 5.95758 3.83249 7.22514 3.83249C8.11269 3.83249 8.96524 4.07666 9.69027 4.53999C9.82695 4.62666 10.0019 4.62666 10.1386 4.53999C10.8637 4.07666 11.7162 3.83249 12.6038 3.83249C13.8713 3.83249 15.0314 4.39168 15.8681 5.40835C16.8048 6.54335 17.1923 8.09416 16.9065 9.55749Z" fill="#040414"/>
</g>
</svg>
