<svg width="37" height="28" viewBox="0 0 37 28" fill="none" xmlns="http://www.w3.org/2000/svg">
<path id="Quotes" d="M28.5905 16.7325C29.0018 16.7325 29.3965 16.6711 29.7894 16.6152C29.6621 17.0337 29.5312 17.4593 29.3209 17.8417C29.1106 18.3972 28.7823 18.8788 28.4558 19.3639C28.1828 19.8888 27.7014 20.2441 27.3473 20.6932C26.9765 21.1297 26.4711 21.42 26.0709 21.7826C25.678 22.1613 25.1634 22.3507 24.7539 22.6176C24.326 22.8575 23.9534 23.1226 23.5549 23.2489L22.5608 23.6493L21.6865 24.0046L22.581 27.5L23.6822 27.2403C24.0345 27.1537 24.4643 27.0527 24.9531 26.9319C25.4529 26.8417 25.986 26.5946 26.5799 26.3691C27.1665 26.113 27.8453 25.9399 28.4761 25.5287C29.1106 25.1355 29.8429 24.8072 30.4885 24.2806C31.1137 23.7377 31.8682 23.2669 32.4252 22.5762C33.0339 21.9305 33.6352 21.2523 34.1019 20.4804C34.6423 19.7445 35.0094 18.9365 35.3967 18.1375C35.7472 17.3385 36.0294 16.5214 36.2599 15.7279C36.6971 14.1371 36.8926 12.6257 36.9682 11.3325C37.0309 10.0375 36.994 8.96072 36.9166 8.18156C36.8889 7.81363 36.8373 7.45652 36.8004 7.20942L36.7543 6.90642L36.7063 6.91723C36.3782 5.41874 35.623 4.04169 34.528 2.94537C33.433 1.84905 32.0429 1.07825 30.5186 0.722162C28.9943 0.36607 27.3981 0.439226 25.9145 0.933168C24.431 1.42711 23.1207 2.32166 22.1354 3.51332C21.1501 4.70498 20.5299 6.14508 20.3466 7.667C20.1633 9.18893 20.4244 10.7305 21.0997 12.1134C21.7749 13.4963 22.8368 14.664 24.1624 15.4814C25.4881 16.2988 27.0233 16.7326 28.5905 16.7325ZM8.30085 16.7325C8.71218 16.7325 9.1069 16.6711 9.49978 16.6152C9.37251 17.0337 9.24155 17.4593 9.03128 17.8417C8.821 18.3972 8.49268 18.8788 8.1662 19.3639C7.89322 19.8888 7.4118 20.2441 7.05765 20.6932C6.68691 21.1297 6.18151 21.42 5.78125 21.7826C5.38837 22.1613 4.87376 22.3507 4.46428 22.6176C4.03635 22.8575 3.66376 23.1226 3.26534 23.2489L2.27115 23.6493L1.39685 24.0046L2.29144 27.5L3.39262 27.2403C3.74492 27.1537 4.17468 27.0527 4.66348 26.9319C5.16334 26.8417 5.69641 26.5946 6.29034 26.3691C6.87505 26.1112 7.55567 25.9399 8.18649 25.5269C8.821 25.1337 9.55327 24.8054 10.1989 24.2788C10.8241 23.7359 11.5785 23.2651 12.1356 22.5762C12.7443 21.9305 13.3456 21.2523 13.8122 20.4804C14.3527 19.7445 14.7197 18.9365 15.1071 18.1375C15.4576 17.3385 15.7398 16.5214 15.9703 15.7279C16.4075 14.1371 16.603 12.6257 16.6786 11.3325C16.7413 10.0375 16.7044 8.96072 16.627 8.18156C16.5993 7.81363 16.5477 7.45652 16.5108 7.20942L16.4647 6.90642L16.4167 6.91723C16.0886 5.41874 15.3334 4.04169 14.2384 2.94537C13.1434 1.84905 11.7533 1.07825 10.229 0.722162C8.70473 0.36607 7.10848 0.439226 5.62492 0.933168C4.14137 1.42711 2.83113 2.32166 1.84579 3.51332C0.860451 4.70498 0.240261 6.14508 0.0569687 7.667C-0.12632 9.18893 0.134773 10.7305 0.810055 12.1134C1.48533 13.4963 2.54721 14.664 3.87283 15.4814C5.19845 16.2988 6.73366 16.7326 8.30085 16.7325Z" fill="#4158F2"/>
</svg>
