<svg width="33" height="24" viewBox="0 0 33 24" fill="none" xmlns="http://www.w3.org/2000/svg">
<path d="M15.978 18C15.8454 18 15.7127 17.9516 15.6079 17.8477L11.0551 13.335C10.315 12.6013 10.315 11.397 11.0551 10.6633L15.6079 6.15054C15.8104 5.94982 16.1456 5.94982 16.3481 6.15054C16.5506 6.35126 16.5506 6.68349 16.3481 6.88421L11.7953 11.397C11.4601 11.7292 11.4601 12.2691 11.7953 12.6013L16.3481 17.1141C16.5506 17.3148 16.5506 17.647 16.3481 17.8477C16.2434 17.9446 16.1107 18 15.978 18Z" fill="#4158F2"/>
<path d="M23.978 18C23.8454 18 23.7127 17.9516 23.6079 17.8477L19.0551 13.335C18.315 12.6013 18.315 11.397 19.0551 10.6633L23.6079 6.15054C23.8104 5.94982 24.1456 5.94982 24.3481 6.15054C24.5506 6.35126 24.5506 6.68349 24.3481 6.88421L19.7953 11.397C19.4601 11.7292 19.4601 12.2691 19.7953 12.6013L24.3481 17.1141C24.5506 17.3148 24.5506 17.647 24.3481 17.8477C24.2434 17.9446 24.1107 18 23.978 18Z" fill="#4158F2"/>
</svg>
