<svg width="24" height="16" viewBox="0 0 24 16" fill="none" xmlns="http://www.w3.org/2000/svg">
<g clip-path="url(#clip0_6133_65262)">
<path d="M0 2C0 0.895431 0.895431 0 2 0H22C23.1046 0 24 0.895431 24 2V14C24 15.1046 23.1046 16 22 16H2C0.89543 16 0 15.1046 0 14V2Z" fill="#CCFFE8"/>
<path fill-rule="evenodd" clip-rule="evenodd" d="M2.80921 7.26615C2.76466 7.37751 2.74239 7.49629 2.71269 7.61508C2.63846 7.97142 2.57906 8.35004 2.4974 8.70639C2.33408 8.70639 2.16333 8.70639 2 8.70639C2.1856 7.50372 2.5271 6.33074 2.67557 5.03898C2.8389 5.03898 3.00223 5.03898 3.15813 5.03898C3.13586 5.15776 3.10616 5.26912 3.09131 5.38791C3.09131 5.39533 3.07647 5.40275 3.07647 5.4176C3.29918 5.12807 3.64068 4.92762 4.18263 4.98701C4.71715 5.03898 5.00668 5.46214 5.02895 5.95955C5.08092 6.90981 4.5761 7.77098 3.53675 7.69674C3.19525 7.67447 2.93541 7.54826 2.80921 7.26615ZM3.50705 5.46214C3.06904 5.68486 2.64588 6.70936 3.14328 7.14737C3.46993 7.4369 3.98218 7.281 4.19748 7.01374C4.44246 6.70936 4.66518 5.83334 4.29399 5.52154C4.16778 5.4176 3.96734 5.38048 3.78174 5.40275C3.64811 5.41018 3.58129 5.42502 3.50705 5.46214Z" fill="#030000"/>
<path fill-rule="evenodd" clip-rule="evenodd" d="M7.32321 7.64525C7.16731 7.64525 7.01141 7.64525 6.84808 7.64525C6.87035 7.49677 6.90005 7.35572 6.92974 7.21466C6.78869 7.42253 6.5437 7.6601 6.18735 7.69722C5.6751 7.74919 5.2074 7.48935 5.16285 7.06619C5.14801 6.92513 5.15543 6.69499 5.27421 6.51682C5.57117 6.04911 6.34326 6.01942 7.10792 6.04169C7.33806 5.19536 6.10569 5.32157 5.68253 5.59625C5.7048 5.43293 5.74192 5.27703 5.76419 5.1137C6.52885 4.87613 7.56078 4.93553 7.62017 5.75958C7.64244 6.08623 7.54593 6.40546 7.48654 6.71726C7.42715 7.02164 7.36775 7.3186 7.32321 7.64525ZM5.7048 6.96968C5.71965 7.18497 5.95721 7.30375 6.15023 7.30375C6.67733 7.31118 6.92974 6.85089 7.01141 6.39803C6.41749 6.36834 5.66768 6.44258 5.7048 6.96968Z" fill="#030000"/>
<path fill-rule="evenodd" clip-rule="evenodd" d="M8.4661 5.04688C8.57746 5.7373 8.71109 6.40545 8.81503 7.11072C9.2085 6.43515 9.57227 5.72987 9.95831 5.04688C10.1365 5.04688 10.3147 5.04688 10.5003 5.04688C10.0251 5.90805 9.46833 6.85088 8.93381 7.7566C8.77049 8.03871 8.60716 8.41733 8.36959 8.60293C8.16173 8.76625 7.76083 8.80337 7.42676 8.73656C7.43418 8.58808 7.48615 8.47672 7.49357 8.33567C7.56039 8.32824 7.64205 8.37278 7.72371 8.37278C8.08749 8.37278 8.28793 8.03871 8.42156 7.77887C8.26566 6.88058 8.09491 5.98971 7.93901 5.08399C7.92416 5.06915 7.93158 5.06172 7.93901 5.04688C8.11718 5.04688 8.29535 5.04688 8.4661 5.04688Z" fill="#030000"/>
<path fill-rule="evenodd" clip-rule="evenodd" d="M10.7158 9.1662C10.6045 9.79724 10.4634 10.3911 10.352 11.0222C10.0031 11.0222 9.6542 11.0222 9.29785 11.0222C9.46118 10.2501 9.60223 9.48543 9.75813 8.72077C9.91403 7.96353 10.0996 7.20629 10.1887 6.40451C10.4708 6.38224 10.8494 6.38224 11.1316 6.40451C11.1241 6.58268 11.0796 6.73116 11.0647 6.90191C11.3394 6.62723 11.6364 6.26346 12.2674 6.32285C12.8688 6.38224 13.2028 6.88706 13.2474 7.52552C13.329 8.62426 12.7945 9.70072 11.8294 9.77496C11.2281 9.81951 10.946 9.54482 10.7158 9.1662ZM11.139 7.52552C10.894 7.87444 10.8123 8.5426 11.1241 8.80243C11.3172 8.96576 11.6735 8.8841 11.8368 8.75047C12.0447 8.57972 12.1932 8.25306 12.1858 7.84475C12.1783 7.47355 12.015 7.16175 11.6215 7.21372C11.3914 7.24341 11.2503 7.3622 11.139 7.52552Z" fill="#009651"/>
<path fill-rule="evenodd" clip-rule="evenodd" d="M16.1354 9.70946C15.8607 9.70204 15.5489 9.72431 15.2965 9.69461C15.3261 9.54613 15.3262 9.36054 15.3484 9.21206C15.2668 9.29372 15.2074 9.4125 15.1034 9.50902C14.7619 9.82082 13.9973 9.88763 13.6187 9.57583C13.2103 9.23433 13.2772 8.4177 13.6187 8.06878C14.0121 7.66046 14.7545 7.55653 15.5192 7.63819C15.5934 7.32639 15.3855 7.13337 15.1257 7.09625C14.7471 7.04428 14.2423 7.2076 14.0195 7.34124C14.0641 7.07397 14.0789 6.78444 14.1309 6.51718C14.3982 6.42067 14.6506 6.34643 14.9698 6.33158C15.8532 6.27219 16.462 6.56915 16.5214 7.32639C16.5511 7.72728 16.4323 8.14302 16.3432 8.53648C16.2616 8.92253 16.2022 9.31599 16.1354 9.70946ZM15.0737 8.22468C14.7545 8.2321 14.4056 8.33604 14.3313 8.5736C14.272 8.78147 14.4204 8.97449 14.5763 9.00419C15.0663 9.10812 15.4004 8.62557 15.4375 8.23953C15.3261 8.21726 15.1628 8.22468 15.0737 8.22468Z" fill="#009651"/>
<path fill-rule="evenodd" clip-rule="evenodd" d="M19.3721 6.51671C19.3201 6.78397 19.2236 7.00669 19.1716 7.27395C18.9118 7.18486 18.6 7.05123 18.1917 7.09578C18.0283 7.11805 17.865 7.19971 17.865 7.36304C17.8724 7.56348 18.1768 7.63772 18.3624 7.71196C18.6223 7.82332 18.9341 7.9718 19.0603 8.19451C19.2756 8.58056 19.0603 9.14477 18.8301 9.38234C18.6371 9.58278 18.2733 9.74611 17.9021 9.77581C17.4196 9.81292 16.9148 9.72384 16.499 9.61248C16.5584 9.3378 16.6252 9.08538 16.6995 8.83297C16.9742 8.94433 17.286 9.04826 17.7091 9.01114C17.9096 8.98887 18.1323 8.92206 18.1026 8.68449C18.0803 8.49147 17.7908 8.42465 17.5755 8.33557C17.1746 8.17224 16.8776 7.96437 16.8776 7.42243C16.8776 6.30884 18.4218 6.12324 19.3721 6.51671Z" fill="#009651"/>
<path fill-rule="evenodd" clip-rule="evenodd" d="M21.9996 6.51613C21.9402 6.77597 21.8586 7.02096 21.7843 7.27337C21.5393 7.17686 21.2201 7.05065 20.8118 7.0952C20.6485 7.11004 20.4851 7.19171 20.4851 7.36246C20.4926 7.57033 20.8638 7.68168 21.0345 7.75592C21.3834 7.9044 21.7175 8.06773 21.7621 8.46862C21.8066 8.86209 21.6433 9.18131 21.4131 9.39661C21.1978 9.60448 20.8786 9.74553 20.5223 9.77523C20.0323 9.81235 19.5572 9.72326 19.1191 9.6119C19.1637 9.32979 19.2528 9.09965 19.3047 8.83239C19.5052 8.89178 19.6982 8.98829 19.9358 9.01056C20.2698 9.04026 20.7227 9.01799 20.7153 8.72846C20.7079 8.41665 20.062 8.34984 19.8096 8.14939C19.5349 7.9341 19.3641 7.407 19.5794 6.97641C19.9358 6.30826 21.1607 6.15978 21.9996 6.51613Z" fill="#009651"/>
</g>
<defs>
<clipPath id="clip0_6133_65262">
<rect width="24" height="16" fill="white"/>
</clipPath>
</defs>
</svg>
