<svg width="24" height="16" viewBox="0 0 24 16" fill="none" xmlns="http://www.w3.org/2000/svg">
<g clip-path="url(#clip0_6133_65256)">
<path d="M0 2C0 0.895431 0.895431 0 2 0H22C23.1046 0 24 0.895431 24 2V14C24 15.1046 23.1046 16 22 16H2C0.89543 16 0 15.1046 0 14V2Z" fill="#FCE6CF"/>
<path d="M15.3548 9.54437C15.5541 9.62979 15.6395 9.91452 15.6395 10.0569C15.668 10.2847 15.611 10.3986 15.5256 10.3986C15.4402 10.3986 15.3263 10.3131 15.2124 10.1138C15.0985 9.91452 15.0416 9.71521 15.0985 9.60132C15.1839 9.54437 15.2693 9.5159 15.3548 9.54437Z" fill="#F28A1A"/>
<path d="M14.1872 10.4277C14.3011 10.4277 14.4435 10.4847 14.5859 10.5986C14.8136 10.7979 14.8991 11.0257 14.7852 11.1965C14.7282 11.2819 14.5859 11.3389 14.472 11.3389C14.3296 11.3389 14.1872 11.2819 14.1018 11.1965C13.874 10.9972 13.8171 10.7125 13.9595 10.5416C13.9879 10.4847 14.0733 10.4277 14.1872 10.4277Z" fill="#F28A1A"/>
<path d="M11.4828 12.6773C8.52161 12.6773 6.12988 10.2856 6.12988 7.3529C6.12988 4.4202 8.52161 2 11.4828 2C14.444 2 16.8357 4.39172 16.8357 7.3529C16.8357 8.34945 16.551 9.28906 16.0954 10.0863C16.0669 10.1148 16.0384 10.1148 16.0384 10.0578C15.8391 8.74807 15.0419 8.03625 13.903 7.80847C13.7891 7.78 13.7891 7.72305 13.9315 7.72305C14.3016 7.69458 14.7856 7.69458 15.0704 7.75152C15.0988 7.60916 15.0988 7.46679 15.0988 7.3529C15.0988 5.41675 13.5044 3.82226 11.5682 3.82226C9.63205 3.82226 8.03757 5.41675 8.03757 7.3529C8.03757 9.28906 9.63205 10.8835 11.5682 10.8835H11.739C11.6821 10.5703 11.6536 10.2571 11.6821 9.91546C11.6821 9.68768 11.739 9.65921 11.8245 9.83004C12.3085 10.6842 13.0203 11.4245 14.387 11.7377C15.4975 11.994 16.6079 12.2787 17.8322 13.7878C17.9461 13.9301 17.7753 14.0725 17.6614 13.9586C16.4371 12.8766 15.3266 12.5065 14.3016 12.5065C13.0203 12.535 12.2516 12.6773 11.4828 12.6773Z" fill="#F28A1A"/>
</g>
<defs>
<clipPath id="clip0_6133_65256">
<rect width="24" height="16" fill="white"/>
</clipPath>
</defs>
</svg>
