<svg width="37" height="37" viewBox="0 0 37 37" fill="none" xmlns="http://www.w3.org/2000/svg">
<g id="Iconsax/Linear/callcalling">
<path id="Vector" d="M33.0499 28.0857C33.0499 28.6212 32.9309 29.1715 32.678 29.707C32.4252 30.2424 32.098 30.7481 31.6666 31.224C30.9378 32.0272 30.1347 32.6073 29.2274 32.9791C28.335 33.3509 27.3682 33.5443 26.3271 33.5443C24.81 33.5443 23.1888 33.1873 21.4784 32.4585C19.7679 31.7297 18.0575 30.7481 16.3619 29.5136C14.6338 28.2495 13.003 26.8574 11.4834 25.349C9.97937 23.8349 8.59217 22.2091 7.33373 20.4854C6.11411 18.7899 5.13247 17.0943 4.41854 15.4136C3.70462 13.718 3.34766 12.0968 3.34766 10.55C3.34766 9.53859 3.52614 8.57182 3.8831 7.67942C4.24006 6.77214 4.80525 5.93923 5.59354 5.19556C6.54544 4.25853 7.58658 3.79745 8.68721 3.79745C9.10367 3.79745 9.52012 3.8867 9.89196 4.06518C10.2787 4.24366 10.6208 4.51138 10.8885 4.89809L14.3391 9.7617C14.6068 10.1335 14.8002 10.4756 14.934 10.8028C15.0679 11.1152 15.1423 11.4275 15.1423 11.7101C15.1423 12.0671 15.0382 12.424 14.8299 12.7661C14.6366 13.1082 14.354 13.4652 13.997 13.8221L12.8666 14.9971C12.703 15.1607 12.6287 15.3541 12.6287 15.5921C12.6287 15.7111 12.6435 15.8152 12.6733 15.9342C12.7179 16.0532 12.7625 16.1424 12.7923 16.2316C13.06 16.7225 13.5211 17.362 14.1755 18.1354C14.8448 18.9088 15.5587 19.6971 16.3321 20.4854C17.1353 21.2737 17.9087 22.0025 18.697 22.6718C19.4704 23.3263 20.11 23.7725 20.6157 24.0402C20.6901 24.0699 20.7793 24.1145 20.8834 24.1592C21.0024 24.2038 21.1214 24.2187 21.2553 24.2187C21.5081 24.2187 21.7015 24.1294 21.8651 23.9658L22.9954 22.8503C23.3673 22.4785 23.7242 22.1959 24.0663 22.0174C24.4084 21.8092 24.7505 21.7051 25.1223 21.7051C25.4049 21.7051 25.7024 21.7645 26.0296 21.8984C26.3568 22.0323 26.6989 22.2256 27.0708 22.4785L31.9939 25.9737C32.3806 26.2414 32.6483 26.5538 32.8119 26.9256C32.9606 27.2975 33.0499 27.6693 33.0499 28.0857V28.0857Z" stroke="#4C442E" stroke-width="2.23101" stroke-miterlimit="10"/>
<path id="Vector_2" d="M27.8893 14.2088C27.8893 13.3164 27.1902 11.9481 26.1491 10.8326C25.1972 9.80632 23.933 9.00315 22.6836 9.00315M33.095 14.2088C33.095 8.45284 28.4396 3.79745 22.6836 3.79745" stroke="#4C442E" stroke-width="2.23101" stroke-linecap="round" stroke-linejoin="round"/>
</g>
</svg>
