<svg width="37" height="37" viewBox="0 0 37 37" fill="none" xmlns="http://www.w3.org/2000/svg">
<path d="M18.7557 20.3105C19.3651 20.3105 19.9686 20.1905 20.5316 19.9573C21.0946 19.724 21.6062 19.3822 22.0371 18.9513C22.468 18.5204 22.8098 18.0088 23.043 17.4458C23.2762 16.8828 23.3962 16.2794 23.3962 15.67C23.3962 15.0606 23.2762 14.4572 23.043 13.8941C22.8098 13.3311 22.468 12.8196 22.0371 12.3887C21.6062 11.9577 21.0946 11.6159 20.5316 11.3827C19.9686 11.1495 19.3651 11.0295 18.7557 11.0295C17.525 11.0295 16.3447 11.5184 15.4744 12.3887C14.6041 13.2589 14.1152 14.4392 14.1152 15.67C14.1152 16.9007 14.6041 18.0811 15.4744 18.9513C16.3447 19.8216 17.525 20.3105 18.7557 20.3105V20.3105Z" stroke="#4C442E" stroke-width="2.23101"/>
<path d="M6.29075 12.9629C9.22081 0.0825607 28.3034 0.0974344 31.2186 12.9778C32.929 20.5335 28.229 26.9291 24.1091 30.8854C22.6695 32.2739 20.7473 33.0498 18.7472 33.0498C16.7471 33.0498 14.825 32.2739 13.3854 30.8854C9.28031 26.9291 4.58031 20.5186 6.29075 12.9629V12.9629Z" stroke="#4C442E" stroke-width="2.23101"/>
</svg>
