<svg width="30" height="31" viewBox="0 0 30 31" fill="none" xmlns="http://www.w3.org/2000/svg">
<g id="vuesax/outline/location">
<g id="location">
<path id="Vector" d="M15.0016 18.2123C12.3391 18.2123 10.1641 16.0498 10.1641 13.3748C10.1641 10.6998 12.3391 8.5498 15.0016 8.5498C17.6641 8.5498 19.8391 10.7123 19.8391 13.3873C19.8391 16.0623 17.6641 18.2123 15.0016 18.2123ZM15.0016 10.4248C13.3766 10.4248 12.0391 11.7498 12.0391 13.3873C12.0391 15.0248 13.3641 16.3498 15.0016 16.3498C16.6391 16.3498 17.9641 15.0248 17.9641 13.3873C17.9641 11.7498 16.6266 10.4248 15.0016 10.4248Z" fill="#4158F2"/>
<path id="Vector_2" d="M14.9981 28.95C13.1481 28.95 11.2856 28.25 9.83564 26.8625C6.14814 23.3125 2.07315 17.65 3.61065 10.9125C4.99815 4.8 10.3356 2.0625 14.9981 2.0625C14.9981 2.0625 14.9981 2.0625 15.0106 2.0625C19.6731 2.0625 25.0106 4.8 26.3981 10.925C27.9231 17.6625 23.8481 23.3125 20.1606 26.8625C18.7106 28.25 16.8481 28.95 14.9981 28.95ZM14.9981 3.9375C11.3606 3.9375 6.68565 5.875 5.44815 11.325C4.09815 17.2125 7.79814 22.2875 11.1481 25.5C13.3106 27.5875 16.6981 27.5875 18.8606 25.5C22.1981 22.2875 25.8981 17.2125 24.5731 11.325C23.3231 5.875 18.6356 3.9375 14.9981 3.9375Z" fill="#4158F2"/>
</g>
</g>
</svg>
