<svg width="30" height="31" viewBox="0 0 30 31" fill="none" xmlns="http://www.w3.org/2000/svg">
<g id="vuesax/outline/sms-tracking">
<g id="sms-tracking">
<path id="Vector" d="M21.25 27.0625H8.75C8.2375 27.0625 7.8125 26.6375 7.8125 26.125C7.8125 25.6125 8.2375 25.1875 8.75 25.1875H21.25C24.825 25.1875 26.5625 23.45 26.5625 19.875V11.125C26.5625 7.55 24.825 5.8125 21.25 5.8125H8.75C5.175 5.8125 3.4375 7.55 3.4375 11.125C3.4375 11.6375 3.0125 12.0625 2.5 12.0625C1.9875 12.0625 1.5625 11.6375 1.5625 11.125C1.5625 6.5625 4.1875 3.9375 8.75 3.9375H21.25C25.8125 3.9375 28.4375 6.5625 28.4375 11.125V19.875C28.4375 24.4375 25.8125 27.0625 21.25 27.0625Z" fill="#4158F2"/>
<path id="Vector_2" d="M14.9995 16.587C13.9495 16.587 12.887 16.262 12.0745 15.5995L8.16198 12.4745C7.76198 12.1495 7.68698 11.562 8.01198 11.162C8.33698 10.762 8.92447 10.687 9.32447 11.012L13.237 14.137C14.187 14.8995 15.7995 14.8995 16.7495 14.137L20.662 11.012C21.062 10.687 21.662 10.7495 21.9745 11.162C22.2995 11.562 22.237 12.162 21.8245 12.4745L17.912 15.5995C17.112 16.262 16.0495 16.587 14.9995 16.587Z" fill="#4158F2"/>
<path id="Vector_3" d="M10 22.0625H2.5C1.9875 22.0625 1.5625 21.6375 1.5625 21.125C1.5625 20.6125 1.9875 20.1875 2.5 20.1875H10C10.5125 20.1875 10.9375 20.6125 10.9375 21.125C10.9375 21.6375 10.5125 22.0625 10 22.0625Z" fill="#4158F2"/>
<path id="Vector_4" d="M6.25 17.0625H2.5C1.9875 17.0625 1.5625 16.6375 1.5625 16.125C1.5625 15.6125 1.9875 15.1875 2.5 15.1875H6.25C6.7625 15.1875 7.1875 15.6125 7.1875 16.125C7.1875 16.6375 6.7625 17.0625 6.25 17.0625Z" fill="#4158F2"/>
</g>
</g>
</svg>
