<svg width="25" height="13" viewBox="0 0 25 13" fill="none" xmlns="http://www.w3.org/2000/svg">
<g id="Vector">
<path d="M22.6559 6.77006C22.6559 5.73424 23.4955 4.89459 24.5313 4.89459V2.69082C24.5313 1.75537 23.773 0.997033 22.8375 0.997L11.6206 0.997033L10.4712 2.14639L9.32187 0.997032L3.15679 0.997032C2.22134 0.997032 1.46301 1.75537 1.46297 2.69085L1.46297 4.89463C2.4988 4.89463 3.33845 5.73428 3.33845 6.7701C3.33845 7.80592 2.4988 8.64557 1.46297 8.64557L1.46297 10.8374C1.46297 11.7729 2.22131 12.5312 3.15679 12.5312H9.32187L10.4712 11.3819L11.6206 12.5312H22.8376C23.773 12.5312 24.5313 11.7729 24.5314 10.8374V8.64557C23.4955 8.64554 22.6558 7.80585 22.6559 6.77006Z" fill="white"/>
<path d="M10.4712 2.14639L9.32187 0.997032L3.15679 0.997032C2.22134 0.997032 1.46301 1.75537 1.46297 2.69085L1.46297 4.89463C2.4988 4.89463 3.33845 5.73428 3.33845 6.7701C3.33845 7.80592 2.4988 8.64557 1.46297 8.64557L1.46297 10.8374C1.46297 11.7729 2.22131 12.5312 3.15679 12.5312H9.32187L10.4712 11.3819L10.4712 2.14639Z" fill="#DD8571"/>
<path d="M18.5708 9.28987C18.937 9.65607 19.5308 9.65607 19.897 9.28987C20.2632 8.92367 20.2632 8.32994 19.897 7.96374C19.5308 7.59753 18.937 7.59753 18.5708 7.96374C18.2046 8.32994 18.2046 8.92367 18.5708 9.28987Z" fill="white"/>
<path d="M14.6126 5.56479C14.9788 5.93099 15.5725 5.93099 15.9387 5.56479C16.305 5.19859 16.3049 4.60486 15.9387 4.23865C15.5725 3.87245 14.9788 3.87245 14.6126 4.23865C14.2464 4.60486 14.2464 5.19859 14.6126 5.56479Z" fill="white"/>
<path d="M10.1407 4.77221C10.2255 4.85703 10.3427 4.90951 10.4722 4.90947C10.7311 4.90951 10.941 4.69965 10.941 4.44072V4.1286C10.941 3.86981 10.7312 3.65981 10.4722 3.65981C10.2133 3.65978 10.0034 3.86964 10.0034 4.12856L10.0034 4.44069C10.0034 4.57017 10.0559 4.68735 10.1407 4.77221Z" fill="#2B0000"/>
<path d="M10.9413 6.97027V6.58031C10.9413 6.32142 10.7315 6.11156 10.4725 6.11153C10.2136 6.11149 10.0037 6.32139 10.0037 6.58028L10.0037 6.97023C10.0037 7.09971 10.0562 7.21689 10.141 7.30172C10.2259 7.38655 10.3431 7.43899 10.4725 7.43899C10.7314 7.43905 10.9413 7.22916 10.9413 6.97027Z" fill="#2B0000"/>
<path d="M10.4703 8.57587C10.2114 8.57587 10.0015 8.78576 10.0015 9.04465L10.0016 9.48168C10.0015 9.61113 10.054 9.72831 10.1388 9.81313C10.2237 9.89796 10.3409 9.95044 10.4703 9.95044C10.7292 9.95044 10.9391 9.74054 10.9391 9.48165L10.939 9.04462C10.9391 8.78576 10.7291 8.57584 10.4703 8.57587Z" fill="#2B0000"/>
<path d="M25.0001 10.8375L25.0001 8.64561C25 8.52127 24.9507 8.40204 24.8628 8.31413C24.7749 8.22622 24.6556 8.17683 24.5313 8.17683C24.1556 8.17683 23.8023 8.03054 23.5366 7.76482C23.2709 7.49914 23.1246 7.14584 23.1246 6.77014C23.1246 5.9945 23.7557 5.36345 24.5313 5.36342C24.7902 5.36342 25.0001 5.15352 25.0001 4.89463V2.69093C25.0001 1.49854 24.0299 0.528354 22.8375 0.52832L11.6205 0.528386C11.4962 0.528386 11.377 0.577745 11.2891 0.665654L10.4712 1.48349L9.65334 0.665654C9.56543 0.577744 9.4462 0.528386 9.32186 0.528353L3.15678 0.528352C2.57913 0.528352 2.03606 0.753264 1.62757 1.16175C1.21909 1.57024 0.994174 2.11331 0.994174 2.69096L0.994141 4.8947C0.994141 5.15365 1.20397 5.36348 1.46296 5.36351C1.83866 5.36351 2.19196 5.50983 2.45764 5.77552C2.72336 6.04123 2.86968 6.39446 2.86965 6.7702C2.86968 7.14594 2.72333 7.4992 2.45764 7.76489C2.19196 8.03057 1.83873 8.17689 1.46296 8.17689C1.33865 8.17689 1.21938 8.22628 1.13147 8.31419C1.04356 8.4021 0.994174 8.52137 0.994174 8.64567L0.994207 10.8375C0.994241 11.4338 1.23675 11.9744 1.62834 12.366C2.01992 12.7576 2.5606 13.0002 3.15681 13.0002L9.32189 13.0002C9.4462 13.0002 9.56546 12.9508 9.65337 12.8629L10.4712 12.045L11.2891 12.8629C11.377 12.9508 11.4962 13.0001 11.6205 13.0002H15.6293C15.8882 13.0002 16.0981 12.7903 16.0981 12.5314C16.0981 12.2724 15.8882 12.0626 15.6293 12.0625L11.8147 12.0626L10.8027 11.0506C10.6196 10.8675 10.3228 10.8675 10.1397 11.0506L9.12771 12.0626H3.15681C2.48141 12.0626 1.93178 11.513 1.93181 10.8376L1.93178 9.06795C2.37925 8.97762 2.79049 8.75805 3.12061 8.42792C3.56338 7.98516 3.80725 7.39648 3.80725 6.7703C3.80725 6.14413 3.56341 5.55541 3.12065 5.11265C2.79052 4.78252 2.37921 4.56295 1.93181 4.47262L1.93184 2.69106C1.93184 2.01562 2.48141 1.46606 3.15684 1.46606L9.12774 1.46606L10.1397 2.47804C10.3228 2.66109 10.6196 2.66112 10.8027 2.47804L11.8148 1.46602L22.8375 1.46596C23.513 1.46592 24.0625 2.01553 24.0625 2.69096V4.47302C22.9937 4.69077 22.187 5.63805 22.187 6.77017C22.187 7.39634 22.4309 7.98506 22.8736 8.42779C23.2038 8.75795 23.6151 8.97749 24.0625 9.06782L24.0625 10.8375C24.0625 11.5129 23.5129 12.0625 22.8375 12.0625H19.8469C19.588 12.0625 19.3781 12.2724 19.3781 12.5313C19.3781 12.7902 19.5879 13.0001 19.8469 13.0001L22.8375 13.0001C24.0299 13.0001 25.0001 12.03 25.0001 10.8375Z" fill="#2B0000"/>
<path d="M18.6103 4.12593C18.3848 3.99867 18.0989 4.07826 17.9716 4.30371L15.1835 9.24252C15.0776 9.42998 15.1148 9.65923 15.2599 9.80436C15.2894 9.83379 15.3232 9.85978 15.3613 9.88123C15.5867 10.0085 15.8727 9.92889 15.9999 9.70345L18.7881 4.76464C18.9153 4.53919 18.8357 4.25335 18.6103 4.12593Z" fill="#2B0000"/>
<path d="M19.2338 7.22018C18.4583 7.22022 17.8273 7.85113 17.8273 8.62674C17.8273 9.01454 17.985 9.36611 18.2397 9.62083C18.4944 9.87554 18.8461 10.0332 19.2339 10.0333C20.0094 10.0332 20.6403 9.40225 20.6404 8.62674C20.6404 8.25104 20.4941 7.89784 20.2284 7.63215C19.9627 7.36647 19.6095 7.22018 19.2338 7.22018ZM19.2338 9.09566C18.9752 9.09569 18.7649 8.8853 18.7649 8.62674C18.7649 8.36818 18.9753 8.15779 19.2339 8.15779C19.3591 8.15782 19.4769 8.20655 19.5654 8.29512C19.654 8.38369 19.7028 8.50147 19.7028 8.62671C19.7028 8.88526 19.4924 9.09566 19.2338 9.09566Z" fill="#2B0000"/>
<path d="M16.6818 4.90133C16.6818 4.52562 16.5355 4.17243 16.2698 3.90674C16.0041 3.64106 15.6509 3.49477 15.2752 3.49477C14.4997 3.49481 13.8687 4.12572 13.8687 4.90133C13.8687 5.28913 14.0264 5.6407 14.2811 5.89542C14.5358 6.15013 14.8874 6.30782 15.2752 6.30785C16.0508 6.30782 16.6818 5.6768 16.6818 4.90133ZM15.2752 5.37021C15.0167 5.37025 14.8063 5.15985 14.8063 4.90129C14.8063 4.64274 15.0167 4.43234 15.2753 4.43234C15.4005 4.43238 15.5183 4.48111 15.6069 4.56968C15.6954 4.65825 15.7442 4.77603 15.7442 4.90126C15.7442 5.15989 15.5338 5.37025 15.2752 5.37021Z" fill="#2B0000"/>
<path d="M8.49214 4.70212C8.49217 4.44327 8.28234 4.23344 8.02332 4.23331H5.77274C5.51385 4.23331 5.30395 4.4432 5.30395 4.70209C5.30395 4.83157 5.35643 4.94875 5.44125 5.03358C5.52608 5.1184 5.64329 5.17084 5.77274 5.17088H8.02332C8.28224 5.17091 8.49214 4.96101 8.49214 4.70212Z" fill="#2B0000"/>
<path d="M5.44017 7.09552C5.52499 7.18035 5.64221 7.23279 5.77165 7.23282L8.02223 7.23282C8.28112 7.23282 8.49101 7.02293 8.49101 6.76404C8.49105 6.50518 8.28122 6.29535 8.0222 6.29522L5.77162 6.29522C5.51273 6.29522 5.30283 6.50512 5.30283 6.764C5.30283 6.89348 5.35531 7.01066 5.44017 7.09552Z" fill="#2B0000"/>
<path d="M5.44127 9.15954C5.52613 9.2444 5.64331 9.2968 5.77275 9.29684L8.0233 9.2968C8.28219 9.2968 8.49208 9.08691 8.49208 8.82802C8.49205 8.5691 8.28222 8.35927 8.02327 8.3592L5.77272 8.35923C5.51383 8.35923 5.30394 8.56913 5.30394 8.82802C5.30397 8.95753 5.35641 9.07468 5.44127 9.15954Z" fill="#2B0000"/>
<path d="M18.0688 12.1997C17.9816 12.1125 17.8606 12.0625 17.7373 12.0625C17.6137 12.0622 17.493 12.1125 17.4059 12.1997C17.3187 12.2869 17.2683 12.4076 17.2686 12.5312C17.2686 12.6545 17.3187 12.7755 17.4059 12.8627C17.493 12.9498 17.614 12.9999 17.7373 12.9999C17.8606 12.9999 17.9816 12.9498 18.0688 12.8627C18.156 12.7755 18.206 12.6545 18.206 12.5312C18.206 12.4079 18.156 12.2869 18.0688 12.1997Z" fill="#2B0000"/>
</g>
</svg>
