<svg width="25" height="25" viewBox="0 0 25 25" fill="none" xmlns="http://www.w3.org/2000/svg">
<g id="Icon/outline/creditcard">
<g id="shape">
<path d="M6.02074 14.2802C5.60609 14.2802 5.26995 14.6163 5.26995 15.031C5.26995 15.4456 5.60609 15.7818 6.02074 15.7818V14.2802ZM9.52443 15.7818C9.93908 15.7818 10.2752 15.4456 10.2752 15.031C10.2752 14.6163 9.93908 14.2802 9.52443 14.2802V15.7818ZM5.01969 6.77227H19.0344V5.27069H5.01969V6.77227ZM20.2858 8.02359V16.032H21.7873V8.02359H20.2858ZM19.0344 17.2833H5.01969V18.7849H19.0344V17.2833ZM3.76837 16.032V8.02359H2.26679V16.032H3.76837ZM5.01969 17.2833C4.3286 17.2833 3.76837 16.7231 3.76837 16.032H2.26679C2.26679 17.5524 3.4993 18.7849 5.01969 18.7849V17.2833ZM20.2858 16.032C20.2858 16.7231 19.7255 17.2833 19.0344 17.2833V18.7849C20.5548 18.7849 21.7873 17.5524 21.7873 16.032H20.2858ZM19.0344 6.77227C19.7255 6.77227 20.2858 7.33251 20.2858 8.02359H21.7873C21.7873 6.50321 20.5548 5.27069 19.0344 5.27069V6.77227ZM5.01969 5.27069C3.4993 5.27069 2.26679 6.50321 2.26679 8.02359H3.76837C3.76837 7.33251 4.3286 6.77227 5.01969 6.77227V5.27069ZM3.01758 10.7765H21.0365V9.27491H3.01758V10.7765ZM6.02074 15.7818H9.52443V14.2802H6.02074V15.7818Z" fill="#1C1B1A"/>
<path d="M6.02074 14.2802C5.60609 14.2802 5.26995 14.6163 5.26995 15.031C5.26995 15.4456 5.60609 15.7818 6.02074 15.7818V14.2802ZM9.52443 15.7818C9.93908 15.7818 10.2752 15.4456 10.2752 15.031C10.2752 14.6163 9.93908 14.2802 9.52443 14.2802V15.7818ZM5.01969 6.77227H19.0344V5.27069H5.01969V6.77227ZM20.2858 8.02359V16.032H21.7873V8.02359H20.2858ZM19.0344 17.2833H5.01969V18.7849H19.0344V17.2833ZM3.76837 16.032V8.02359H2.26679V16.032H3.76837ZM5.01969 17.2833C4.3286 17.2833 3.76837 16.7231 3.76837 16.032H2.26679C2.26679 17.5524 3.4993 18.7849 5.01969 18.7849V17.2833ZM20.2858 16.032C20.2858 16.7231 19.7255 17.2833 19.0344 17.2833V18.7849C20.5548 18.7849 21.7873 17.5524 21.7873 16.032H20.2858ZM19.0344 6.77227C19.7255 6.77227 20.2858 7.33251 20.2858 8.02359H21.7873C21.7873 6.50321 20.5548 5.27069 19.0344 5.27069V6.77227ZM5.01969 5.27069C3.4993 5.27069 2.26679 6.50321 2.26679 8.02359H3.76837C3.76837 7.33251 4.3286 6.77227 5.01969 6.77227V5.27069ZM3.01758 10.7765H21.0365V9.27491H3.01758V10.7765ZM6.02074 15.7818H9.52443V14.2802H6.02074V15.7818Z" fill="#D2C5A8" fill-opacity="0.14"/>
</g>
</g>
</svg>
