<svg width="14" height="15" viewBox="0 0 14 15" fill="none" xmlns="http://www.w3.org/2000/svg">
<g id="vuesax/outline/edit-2">
<g id="edit-2">
<path id="Vector" d="M3.23117 11.5664C2.87534 11.5664 2.54284 11.4439 2.30367 11.2164C2.00034 10.9306 1.8545 10.4989 1.907 10.0323L2.12284 8.14226C2.16367 7.78642 2.3795 7.31392 2.63034 7.05726L7.4195 1.98809C8.61534 0.722257 9.86367 0.687257 11.1295 1.88309C12.3953 3.07892 12.4303 4.32726 11.2345 5.59309L6.44534 10.6623C6.20034 10.9248 5.74534 11.1698 5.3895 11.2281L3.51117 11.5489C3.412 11.5548 3.3245 11.5664 3.23117 11.5664ZM9.292 1.87726C8.84284 1.87726 8.452 2.15726 8.05534 2.57726L3.26617 7.65226C3.1495 7.77476 3.01534 8.06642 2.992 8.23559L2.77617 10.1256C2.75284 10.3181 2.7995 10.4756 2.9045 10.5748C3.0095 10.6739 3.167 10.7089 3.3595 10.6798L5.23784 10.3589C5.407 10.3298 5.687 10.1781 5.80367 10.0556L10.5928 4.98642C11.3162 4.21642 11.5787 3.50476 10.5228 2.51309C10.0562 2.06392 9.65367 1.87726 9.292 1.87726Z" fill="#292D32"/>
<path id="Vector_2" d="M10.1156 6.56751C10.1039 6.56751 10.0864 6.56751 10.0747 6.56751C8.25475 6.38667 6.79058 5.00417 6.51058 3.19584C6.47558 2.95667 6.63891 2.73501 6.87808 2.69417C7.11725 2.65917 7.33891 2.82251 7.37975 3.06167C7.60141 4.47334 8.74475 5.55834 10.1681 5.69834C10.4072 5.72167 10.5822 5.93751 10.5589 6.17667C10.5297 6.39834 10.3372 6.56751 10.1156 6.56751Z" fill="#292D32"/>
<path id="Vector_3" d="M12.25 13.4502H1.75C1.51083 13.4502 1.3125 13.2519 1.3125 13.0127C1.3125 12.7735 1.51083 12.5752 1.75 12.5752H12.25C12.4892 12.5752 12.6875 12.7735 12.6875 13.0127C12.6875 13.2519 12.4892 13.4502 12.25 13.4502Z" fill="#292D32"/>
</g>
</g>
</svg>
