<svg width="16" height="17" viewBox="0 0 16 17" fill="none" xmlns="http://www.w3.org/2000/svg">
<g id="Icon/Font Awesome Free/Solid/I/info-circle">
<path id="Vector" d="M8.00065 1.34375C4.31901 1.34375 1.33398 4.35294 1.33398 8.06196C1.33398 11.7732 4.31901 14.7802 8.00065 14.7802C11.6823 14.7802 14.6673 11.7732 14.6673 8.06196C14.6673 4.35294 11.6823 1.34375 8.00065 1.34375ZM8.00065 4.3236C8.6242 4.3236 9.12968 4.83299 9.12968 5.46136C9.12968 6.08973 8.6242 6.59913 8.00065 6.59913C7.3771 6.59913 6.87162 6.08973 6.87162 5.46136C6.87162 4.83299 7.3771 4.3236 8.00065 4.3236ZM9.50603 11.2044C9.50603 11.3839 9.36159 11.5294 9.18345 11.5294H6.81786C6.63971 11.5294 6.49527 11.3839 6.49527 11.2044V10.5542C6.49527 10.3747 6.63971 10.2291 6.81786 10.2291H7.14044V8.49539H6.81786C6.63971 8.49539 6.49527 8.34984 6.49527 8.17032V7.52017C6.49527 7.34065 6.63971 7.1951 6.81786 7.1951H8.53829C8.71643 7.1951 8.86087 7.34065 8.86087 7.52017V10.2291H9.18345C9.36159 10.2291 9.50603 10.3747 9.50603 10.5542V11.2044Z" fill="#4158F2"/>
</g>
</svg>
