<svg width="26" height="25" viewBox="0 0 26 25" fill="none" xmlns="http://www.w3.org/2000/svg">
<g id="vuesax/twotone/money-send">
<g id="money-send">
<g id="Group 68" opacity="0.4">
<path id="Vector" d="M10.4727 14.2851C10.4727 15.2906 11.2502 16.0993 12.204 16.0993H14.1529C14.9823 16.0993 15.6561 15.3943 15.6561 14.5131C15.6561 13.5697 15.2415 13.2276 14.6298 13.0099L11.5094 11.9214C10.8977 11.7037 10.483 11.3719 10.483 10.4182C10.483 9.54735 11.1569 8.83203 11.9862 8.83203H13.9352C14.889 8.83203 15.6665 9.64066 15.6665 10.6463" stroke="#4158F2" stroke-width="1.55505" stroke-linecap="round" stroke-linejoin="round"/>
<path id="Vector_2" d="M13.0645 7.80566V17.1359" stroke="#4158F2" stroke-width="1.55505" stroke-linecap="round" stroke-linejoin="round"/>
</g>
<path id="Vector_3" d="M23.4312 12.4705C23.4312 18.1931 18.7868 22.8375 13.0642 22.8375C7.34167 22.8375 2.69727 18.1931 2.69727 12.4705C2.69727 6.74792 7.34167 2.10352 13.0642 2.10352" stroke="#444444" stroke-width="1.55505" stroke-linecap="round" stroke-linejoin="round"/>
<path id="Vector_4" d="M23.43 6.2503V2.10352H19.2832" stroke="#444444" stroke-width="1.55505" stroke-linecap="round" stroke-linejoin="round"/>
<path id="Vector_5" d="M18.2461 7.287L23.4296 2.10352" stroke="#444444" stroke-width="1.55505" stroke-linecap="round" stroke-linejoin="round"/>
</g>
</g>
</svg>
