<svg width="50" height="51" viewBox="0 0 50 51" fill="none" xmlns="http://www.w3.org/2000/svg">
<g id="vuesax/outline/tick-circle">
<g id="tick-circle">
<path id="Vector" d="M25.0003 47.8958C12.6462 47.8958 2.60449 37.8541 2.60449 25.5C2.60449 13.1458 12.6462 3.10413 25.0003 3.10413C37.3545 3.10413 47.3962 13.1458 47.3962 25.5C47.3962 37.8541 37.3545 47.8958 25.0003 47.8958ZM25.0003 6.22913C14.3753 6.22913 5.72949 14.875 5.72949 25.5C5.72949 36.125 14.3753 44.7708 25.0003 44.7708C35.6253 44.7708 44.2712 36.125 44.2712 25.5C44.2712 14.875 35.6253 6.22913 25.0003 6.22913Z" fill="#63E326"/>
<path id="Vector_2" d="M22.043 32.9583C21.6263 32.9583 21.2305 32.7916 20.9388 32.5L15.043 26.6041C14.4388 26 14.4388 25 15.043 24.3958C15.6471 23.7916 16.6471 23.7916 17.2513 24.3958L22.043 29.1875L32.7513 18.4791C33.3555 17.875 34.3555 17.875 34.9596 18.4791C35.5638 19.0833 35.5638 20.0833 34.9596 20.6875L23.1471 32.5C22.8555 32.7916 22.4596 32.9583 22.043 32.9583Z" fill="#63E326"/>
</g>
</g>
</svg>
