<svg width="26" height="25" viewBox="0 0 26 25" fill="none" xmlns="http://www.w3.org/2000/svg">
<g id="vuesax/twotone/truck-tick">
<g id="truck-tick">
<path id="Vector" opacity="0.4" d="M15.7017 2.10352V12.4705C15.7017 13.6109 14.7686 14.5439 13.6283 14.5439H2.22461V7.92975C2.9814 8.83168 4.14253 9.3915 5.42803 9.3604C6.4751 9.33966 7.41847 8.93535 8.12342 8.2615C8.4448 7.99196 8.71436 7.64984 8.9217 7.27662C9.29491 6.64424 9.50222 5.8978 9.48149 5.12028C9.45039 3.90734 8.91132 2.83957 8.0716 2.10352H15.7017Z" stroke="#4158F2" stroke-width="1.55505" stroke-linecap="round" stroke-linejoin="round"/>
<path id="Vector_2" d="M22.9586 14.5441V17.6542C22.9586 19.3752 21.5694 20.7643 19.8485 20.7643H18.8118C18.8118 19.624 17.8787 18.6909 16.7384 18.6909C15.598 18.6909 14.665 19.624 14.665 20.7643H10.5182C10.5182 19.624 9.58516 18.6909 8.44479 18.6909C7.30443 18.6909 6.3714 19.624 6.3714 20.7643H5.3347C3.61378 20.7643 2.22461 19.3752 2.22461 17.6542V14.5441H13.6283C14.7686 14.5441 15.7017 13.6111 15.7017 12.4707V5.21387H17.6092C18.3556 5.21387 19.0399 5.61819 19.4131 6.26094L21.1858 9.36066H19.8485C19.2783 9.36066 18.8118 9.82717 18.8118 10.3974V13.5074C18.8118 14.0776 19.2783 14.5441 19.8485 14.5441H22.9586Z" stroke="#444444" stroke-width="1.55505" stroke-linecap="round" stroke-linejoin="round"/>
<path id="Vector_3" d="M8.44449 22.8372C9.58959 22.8372 10.5179 21.9089 10.5179 20.7638C10.5179 19.6187 9.58959 18.6904 8.44449 18.6904C7.29938 18.6904 6.37109 19.6187 6.37109 20.7638C6.37109 21.9089 7.29938 22.8372 8.44449 22.8372Z" stroke="#444444" stroke-width="1.55505" stroke-linecap="round" stroke-linejoin="round"/>
<path id="Vector_4" d="M16.7375 22.8372C17.8826 22.8372 18.8109 21.9089 18.8109 20.7638C18.8109 19.6187 17.8826 18.6904 16.7375 18.6904C15.5924 18.6904 14.6641 19.6187 14.6641 20.7638C14.6641 21.9089 15.5924 22.8372 16.7375 22.8372Z" stroke="#444444" stroke-width="1.55505" stroke-linecap="round" stroke-linejoin="round"/>
<path id="Vector_5" d="M22.9573 12.4704V14.5438H19.8472C19.2771 14.5438 18.8105 14.0773 18.8105 13.5071V10.397C18.8105 9.82687 19.2771 9.36035 19.8472 9.36035H21.1846L22.9573 12.4704Z" stroke="#444444" stroke-width="1.55505" stroke-linecap="round" stroke-linejoin="round"/>
<g id="Group">
<path id="Vector_6" d="M9.48032 5.11967C9.50105 5.89719 9.29373 6.64363 8.92052 7.27602C8.71318 7.64923 8.44362 7.99135 8.12224 8.26089C7.41729 8.93474 6.47392 9.33905 5.42686 9.35979C4.14135 9.39089 2.98022 8.83107 2.22343 7.92914C2.0783 7.77364 1.9539 7.59741 1.83986 7.42117C1.43555 6.80952 1.20747 6.08385 1.18674 5.30633C1.15564 4.00009 1.73618 2.80785 2.66921 2.03033C3.37416 1.44978 4.2657 1.08694 5.2402 1.06621C6.32873 1.04548 7.324 1.43942 8.07042 2.10291C8.91015 2.83896 9.44921 3.90673 9.48032 5.11967Z" stroke="#444444" stroke-width="1.55505" stroke-miterlimit="10" stroke-linecap="round" stroke-linejoin="round"/>
<path id="Vector_7" opacity="0.4" d="M3.7168 5.24447L4.76387 6.23966L6.93053 4.14551" stroke="#4158F2" stroke-width="1.55505" stroke-linecap="round" stroke-linejoin="round"/>
</g>
</g>
</g>
</svg>
