<svg width="20" height="19" viewBox="0 0 20 19" fill="none" xmlns="http://www.w3.org/2000/svg">
<g id="Mask group">
<mask id="mask0_6095_61956" style="mask-type:alpha" maskUnits="userSpaceOnUse" x="0" y="0" width="20" height="19">
<path id="heart-Light" d="M18.3355 2.38042C17.0743 0.844497 15.3213 0 13.3989 0C12.1892 0 11.0217 0.307178 10.0005 0.890933C8.97924 0.307178 7.81169 0 6.60201 0C4.67959 0 2.92667 0.845552 1.66541 2.38042C0.287287 4.05779 -0.285443 6.34847 0.135679 8.50931C1.14111 13.6776 6.42512 17.3079 8.65076 18.6295C9.06767 18.8765 9.53302 19 10.0005 19C10.4679 19 10.9343 18.8765 11.3502 18.6295C13.5748 17.3089 18.8588 13.6787 19.8642 8.50931C20.2853 6.34847 19.7136 4.05779 18.3355 2.38042ZM18.8314 8.30662C17.9081 13.0558 12.9167 16.4718 10.8132 17.7206C10.311 18.0183 9.68882 18.0183 9.18664 17.7206C7.08313 16.4718 2.09283 13.0558 1.16847 8.30662C0.807357 6.45296 1.29692 4.48743 2.47712 3.05074C3.53519 1.76289 4.99963 1.05455 6.60095 1.05455C7.72219 1.05455 8.79922 1.36385 9.71516 1.95077C9.88782 2.06055 10.1089 2.06055 10.2816 1.95077C11.1975 1.36385 12.2745 1.05455 13.3958 1.05455C14.9971 1.05455 16.4626 1.76289 17.5196 3.05074C18.703 4.48849 19.1925 6.45296 18.8314 8.30662Z" fill="#292D32"/>
</mask>
<g mask="url(#mask0_6095_61956)">
<rect id="Rectangle 227" y="-1" width="20" height="20" fill="#040414"/>
</g>
</g>
</svg>
