<svg width="24" height="25" viewBox="0 0 24 25" fill="none" xmlns="http://www.w3.org/2000/svg">
<g id="asicon/outline/login">
<g id="vuesax/outline/login">
<g id="login">
<path id="Vector" d="M15.24 22.8413H15.11C10.67 22.8413 8.53002 21.0913 8.16002 17.1713C8.12002 16.7613 8.42002 16.3913 8.84002 16.3513C9.25002 16.3113 9.62002 16.6213 9.66002 17.0313C9.95002 20.1713 11.43 21.3413 15.12 21.3413H15.25C19.32 21.3413 20.76 19.9013 20.76 15.8313V9.31127C20.76 5.24127 19.32 3.80127 15.25 3.80127H15.12C11.41 3.80127 9.93002 4.99127 9.66002 8.19127C9.61002 8.60127 9.27002 8.91127 8.84002 8.87127C8.42002 8.84127 8.12001 8.47127 8.15001 8.06127C8.49001 4.08127 10.64 2.30127 15.11 2.30127H15.24C20.15 2.30127 22.25 4.40127 22.25 9.31127V15.8313C22.25 20.7413 20.15 22.8413 15.24 22.8413Z" fill="#2B0000"/>
<path id="Vector_2" d="M14.88 13.3213H2C1.59 13.3213 1.25 12.9813 1.25 12.5713C1.25 12.1613 1.59 11.8213 2 11.8213H14.88C15.29 11.8213 15.63 12.1613 15.63 12.5713C15.63 12.9813 15.3 13.3213 14.88 13.3213Z" fill="#2B0000"/>
<path id="Vector_3" d="M12.6498 16.6713C12.4598 16.6713 12.2698 16.6013 12.1198 16.4513C11.8298 16.1613 11.8298 15.6813 12.1198 15.3913L14.9398 12.5713L12.1198 9.75126C11.8298 9.46126 11.8298 8.98125 12.1198 8.69125C12.4098 8.40125 12.8898 8.40125 13.1798 8.69125L16.5298 12.0413C16.8198 12.3313 16.8198 12.8113 16.5298 13.1013L13.1798 16.4513C13.0298 16.6013 12.8398 16.6713 12.6498 16.6713Z" fill="#2B0000"/>
</g>
</g>
</g>
</svg>
