<svg width="18" height="18" viewBox="0 0 18 18" fill="none" xmlns="http://www.w3.org/2000/svg">
<g id="vuesax/outline/mobile">
<g id="mobile">
<path id="Vector" d="M11.25 17.0625H6.75C3.4425 17.0625 2.4375 16.0575 2.4375 12.75V5.25C2.4375 1.9425 3.4425 0.9375 6.75 0.9375H11.25C14.5575 0.9375 15.5625 1.9425 15.5625 5.25V12.75C15.5625 16.0575 14.5575 17.0625 11.25 17.0625ZM6.75 2.0625C4.065 2.0625 3.5625 2.5725 3.5625 5.25V12.75C3.5625 15.4275 4.065 15.9375 6.75 15.9375H11.25C13.935 15.9375 14.4375 15.4275 14.4375 12.75V5.25C14.4375 2.5725 13.935 2.0625 11.25 2.0625H6.75Z" fill="#4158F2"/>
<path id="Vector_2" d="M10.5 4.6875H7.5C7.1925 4.6875 6.9375 4.4325 6.9375 4.125C6.9375 3.8175 7.1925 3.5625 7.5 3.5625H10.5C10.8075 3.5625 11.0625 3.8175 11.0625 4.125C11.0625 4.4325 10.8075 4.6875 10.5 4.6875Z" fill="#4158F2"/>
<path id="Vector_3" d="M9.00039 14.8953C8.04789 14.8953 7.27539 14.1228 7.27539 13.1703C7.27539 12.2178 8.04789 11.4453 9.00039 11.4453C9.95289 11.4453 10.7254 12.2178 10.7254 13.1703C10.7254 14.1228 9.95289 14.8953 9.00039 14.8953ZM9.00039 12.5628C8.67039 12.5628 8.40039 12.8328 8.40039 13.1628C8.40039 13.4928 8.67039 13.7628 9.00039 13.7628C9.33039 13.7628 9.60039 13.4928 9.60039 13.1628C9.60039 12.8328 9.33039 12.5628 9.00039 12.5628Z" fill="#4158F2"/>
</g>
</g>
</svg>
