<svg width="16" height="17" viewBox="0 0 16 17" fill="none" xmlns="http://www.w3.org/2000/svg">
<g id="vuesax/outline/search-normal">
<g id="search-normal">
<path id="Vector" d="M7.33301 14.4951C3.74634 14.4951 0.833008 11.5818 0.833008 7.99512C0.833008 4.40845 3.74634 1.49512 7.33301 1.49512C10.9197 1.49512 13.833 4.40845 13.833 7.99512C13.833 11.5818 10.9197 14.4951 7.33301 14.4951ZM7.33301 2.49512C4.29967 2.49512 1.83301 4.96178 1.83301 7.99512C1.83301 11.0285 4.29967 13.4951 7.33301 13.4951C10.3663 13.4951 12.833 11.0285 12.833 7.99512C12.833 4.96178 10.3663 2.49512 7.33301 2.49512Z" fill="#040414"/>
<path id="Vector_2" d="M13.4401 15.8554C13.3867 15.8554 13.3334 15.8488 13.2867 15.8421C12.9734 15.8021 12.4067 15.5888 12.0867 14.6354C11.9201 14.1354 11.9801 13.6354 12.2534 13.2554C12.5267 12.8754 12.9867 12.6621 13.5134 12.6621C14.1934 12.6621 14.7267 12.9221 14.9667 13.3821C15.2067 13.8421 15.1401 14.4288 14.7601 14.9954C14.2867 15.7088 13.7734 15.8554 13.4401 15.8554ZM13.0401 14.3221C13.1534 14.6688 13.3134 14.8421 13.4201 14.8554C13.5267 14.8688 13.7267 14.7421 13.9334 14.4421C14.1267 14.1554 14.1401 13.9488 14.0934 13.8554C14.0467 13.7621 13.8601 13.6621 13.5134 13.6621C13.3067 13.6621 13.1534 13.7288 13.0667 13.8421C12.9867 13.9554 12.9734 14.1288 13.0401 14.3221Z" fill="#040414"/>
</g>
</g>
</svg>
