<svg width="16" height="16" viewBox="0 0 16 16" fill="none" xmlns="http://www.w3.org/2000/svg">
<g id="vuesax/outline/translate">
<g id="translate">
<path id="Vector" d="M9.85966 12.9462C9.78633 12.9462 9.70633 12.9263 9.63967 12.8929C9.393 12.7663 9.29299 12.4663 9.41299 12.2196L10.8397 9.37292C10.9263 9.20626 11.0997 9.09961 11.2863 9.09961C11.473 9.09961 11.6463 9.20626 11.733 9.3796L13.1597 12.2263C13.2863 12.4729 13.1863 12.7729 12.933 12.8996C12.6863 13.0262 12.3863 12.9263 12.2597 12.6729L11.2863 10.7196L10.313 12.6729C10.2197 12.8463 10.0397 12.9462 9.85966 12.9462Z" fill="#4158F2"/>
<path id="Vector_2" d="M12.4531 12.4395H10.1064C9.83311 12.4395 9.60645 12.2128 9.60645 11.9395C9.60645 11.6661 9.83311 11.4395 10.1064 11.4395H12.4531C12.7264 11.4395 12.9531 11.6661 12.9531 11.9395C12.9531 12.2128 12.7331 12.4395 12.4531 12.4395Z" fill="#4158F2"/>
<path id="Vector_3" d="M11.2802 15.1669C9.14022 15.1669 7.39355 13.4269 7.39355 11.2802C7.39355 9.13353 9.13356 7.39355 11.2802 7.39355C13.4202 7.39355 15.1669 9.13353 15.1669 11.2802C15.1669 13.4269 13.4269 15.1669 11.2802 15.1669ZM11.2802 8.40019C9.68689 8.40019 8.39355 9.69353 8.39355 11.2869C8.39355 12.8802 9.68689 14.1735 11.2802 14.1735C12.8669 14.1735 14.1669 12.8802 14.1669 11.2869C14.1669 9.69353 12.8736 8.40019 11.2802 8.40019Z" fill="#4158F2"/>
<path id="Vector_4" d="M3.23967 8.46619C2.49967 8.46619 1.91301 8.2595 1.49967 7.8595C1.05967 7.43283 0.833008 6.78617 0.833008 5.95284V3.33952C0.833008 1.71952 1.72634 0.826172 3.34634 0.826172H5.95968C6.79301 0.826172 7.43301 1.04617 7.86634 1.49284C8.28634 1.92617 8.49301 2.55286 8.47301 3.35286V5.95284C8.49301 6.76617 8.28634 7.40619 7.85301 7.83952C7.41967 8.27285 6.77967 8.47285 5.953 8.45951H3.35301C3.30634 8.46618 3.27301 8.46619 3.23967 8.46619ZM3.34634 1.83285C2.27301 1.83285 1.83301 2.27286 1.83301 3.34619V5.95951C1.83301 6.51285 1.953 6.91283 2.193 7.14616C2.42634 7.37283 2.79968 7.47285 3.32634 7.46619H5.953C6.513 7.47952 6.89967 7.36619 7.13301 7.13285C7.36634 6.89952 7.47301 6.50619 7.45968 5.96619V3.33952C7.47301 2.80618 7.36635 2.42616 7.13968 2.19283C6.90635 1.95283 6.50634 1.83285 5.953 1.83285H3.34634Z" fill="#4158F2"/>
<path id="Vector_5" d="M5.99963 4.40039H3.29297C3.01964 4.40039 2.79297 4.17372 2.79297 3.90039C2.79297 3.62706 3.01964 3.40039 3.29297 3.40039H5.99963C6.27297 3.40039 6.49963 3.62706 6.49963 3.90039C6.49963 4.17372 6.27963 4.40039 5.99963 4.40039Z" fill="#4158F2"/>
<path id="Vector_6" d="M4.65332 4.39962C4.37999 4.39962 4.15332 4.17295 4.15332 3.89962V3.44629C4.15332 3.17296 4.37999 2.94629 4.65332 2.94629C4.92665 2.94629 5.15332 3.17296 5.15332 3.44629V3.89962C5.15332 4.17295 4.92665 4.39962 4.65332 4.39962Z" fill="#4158F2"/>
<path id="Vector_7" d="M3.29297 6.50688C3.01964 6.50688 2.79297 6.28021 2.79297 6.00688C2.79297 5.73354 3.01964 5.50688 3.29297 5.50688C4.13964 5.50688 4.8263 4.78689 4.8263 3.89355C4.8263 3.62022 5.05297 3.39355 5.3263 3.39355C5.59964 3.39355 5.8263 3.62022 5.8263 3.89355C5.8263 5.33355 4.69297 6.50688 3.29297 6.50688Z" fill="#4158F2"/>
<path id="Vector_8" d="M6.00695 6.50671C5.38695 6.50671 4.79362 6.19339 4.37362 5.64005C4.20695 5.42005 4.25362 5.10669 4.47362 4.94002C4.69362 4.77335 5.00695 4.82004 5.17362 5.04004C5.40028 5.3467 5.70028 5.51338 6.00695 5.51338C6.28028 5.51338 6.50695 5.74005 6.50695 6.01338C6.50695 6.28672 6.28028 6.50671 6.00695 6.50671Z" fill="#4158F2"/>
<path id="Vector_9" d="M5.99967 15.1667C3.15301 15.1667 0.833008 12.8467 0.833008 10C0.833008 9.72667 1.05967 9.5 1.33301 9.5C1.60634 9.5 1.83301 9.72667 1.83301 10C1.83301 11.9733 3.20634 13.6267 5.05301 14.06L4.87301 13.76C4.73301 13.52 4.80635 13.2133 5.04635 13.0733C5.27968 12.9333 5.59301 13.0067 5.73301 13.2467L6.433 14.4133C6.52634 14.5667 6.52634 14.76 6.43968 14.9133C6.34634 15.0667 6.17967 15.1667 5.99967 15.1667Z" fill="#4158F2"/>
<path id="Vector_10" d="M14.6669 6.49967C14.3936 6.49967 14.1669 6.27301 14.1669 5.99967C14.1669 4.02634 12.7936 2.37299 10.9469 1.93966L11.127 2.23966C11.267 2.47966 11.1936 2.78635 10.9536 2.92635C10.7203 3.06635 10.4069 2.99301 10.2669 2.75301L9.56695 1.58634C9.47362 1.43301 9.47361 1.23968 9.56028 1.08634C9.64695 0.926344 9.81362 0.833008 9.99362 0.833008C12.8403 0.833008 15.1603 3.15301 15.1603 5.99967C15.167 6.27301 14.9403 6.49967 14.6669 6.49967Z" fill="#4158F2"/>
</g>
</g>
</svg>
