<svg width="18" height="19" viewBox="0 0 18 19" fill="none" xmlns="http://www.w3.org/2000/svg">
<g id="Mask group">
<mask id="mask0_6095_61962" style="mask-type:alpha" maskUnits="userSpaceOnUse" x="0" y="0" width="18" height="19">
<g id="Group 5">
<path id="Vector" d="M8.55076 10.1628C5.64889 10.1628 3.28711 7.88279 3.28711 5.0814C3.28711 2.28 5.64889 0 8.55076 0C11.4526 0 13.8144 2.28 13.8144 5.0814C13.8144 7.88279 11.4526 10.1628 8.55076 10.1628ZM8.55076 1.32558C6.40868 1.32558 4.66024 3.01349 4.66024 5.0814C4.66024 7.14931 6.40868 8.83721 8.55076 8.83721C10.6928 8.83721 12.4413 7.14931 12.4413 5.0814C12.4413 3.01349 10.6928 1.32558 8.55076 1.32558Z" fill="#292D32"/>
<path id="Vector_2" d="M16.4134 18.9999C16.0381 18.9999 15.7269 18.6994 15.7269 18.3371C15.7269 15.2883 12.5046 12.8139 8.55 12.8139C4.59539 12.8139 1.37313 15.2883 1.37313 18.3371C1.37313 18.6994 1.06188 18.9999 0.686563 18.9999C0.311242 18.9999 0 18.6994 0 18.3371C0 14.5636 3.8356 11.4883 8.55 11.4883C13.2644 11.4883 17.1 14.5636 17.1 18.3371C17.1 18.6994 16.7888 18.9999 16.4134 18.9999Z" fill="#292D32"/>
</g>
</mask>
<g mask="url(#mask0_6095_61962)">
<rect id="Rectangle 228" x="-0.950195" width="19" height="19" fill="#040414"/>
</g>
</g>
</svg>
