<svg width="26" height="27" viewBox="0 0 26 27" fill="none" xmlns="http://www.w3.org/2000/svg">
<g id="Group">
<path id="Vector" d="M20.2673 6.23291C19.4875 5.45308 19.4875 4.18882 20.2673 3.40899L18.6082 1.74987C17.9039 1.04562 16.7621 1.04562 16.0578 1.74987L7.61309 10.1946V11.9252H5.88249L1.24108 16.5666C0.536826 17.2709 0.536826 18.4127 1.24108 19.117L2.9002 20.7761C3.68003 19.9963 4.9443 19.9963 5.72412 20.7761C6.50394 21.556 6.50394 22.8202 5.72412 23.6001L7.37426 25.2502C8.07851 25.9544 9.22035 25.9544 9.92465 25.2502L14.5661 20.6088V18.8782H16.2967L24.7414 10.4334C25.4457 9.72919 25.4457 8.58735 24.7414 7.88305L23.0913 6.23291C22.3114 7.01273 21.0471 7.01273 20.2673 6.23291Z" fill="white"/>
<path id="Vector_2" d="M7.61308 11.9248H5.88249L1.24108 16.5662C0.536826 17.2705 0.536826 18.4123 1.24108 19.1166L2.9002 20.7757C3.68003 19.9959 4.9443 19.9959 5.72412 20.7757C6.50394 21.5556 6.50394 22.8198 5.72412 23.5996L7.37426 25.2498C8.07851 25.954 9.22035 25.954 9.92465 25.2498L14.5661 20.6084V18.8778L7.61308 11.9248Z" fill="#4158F2"/>
<path id="Vector_3" d="M19.0882 11.2048C19.6396 11.2048 20.0866 10.7578 20.0866 10.2064C20.0866 9.655 19.6396 9.20801 19.0882 9.20801C18.5368 9.20801 18.0898 9.655 18.0898 10.2064C18.0898 10.7578 18.5368 11.2048 19.0882 11.2048Z" fill="white"/>
<path id="Vector_4" d="M13.305 11.3806C13.8564 11.3806 14.3034 10.9336 14.3034 10.3822C14.3034 9.83078 13.8564 9.38379 13.305 9.38379C12.7536 9.38379 12.3066 9.83078 12.3066 10.3822C12.3066 10.9336 12.7536 11.3806 13.305 11.3806Z" fill="white"/>
<path id="Vector_5" d="M9.34012 14.1511C9.46794 14.1511 9.59575 14.1023 9.69325 14.0048C9.88834 13.8097 9.88834 13.4935 9.6933 13.2984L9.45815 13.0633C9.2632 12.8683 8.94689 12.8682 8.75179 13.0633C8.5567 13.2583 8.5567 13.5745 8.75175 13.7696L8.9869 14.0048C9.08444 14.1023 9.21226 14.1511 9.34012 14.1511Z" fill="black"/>
<path id="Vector_6" d="M11.5996 15.2028L11.3058 14.909C11.1108 14.7139 10.7945 14.7139 10.5995 14.909C10.4044 15.104 10.4044 15.4203 10.5994 15.6153L10.8932 15.9091C10.9907 16.0067 11.1186 16.0554 11.2464 16.0554C11.3742 16.0554 11.502 16.0066 11.5995 15.9091C11.7946 15.7141 11.7946 15.3978 11.5996 15.2028Z" fill="black"/>
<path id="Vector_7" d="M12.4549 16.7664C12.2598 16.9614 12.2598 17.2777 12.4549 17.4728L12.7842 17.802C12.8817 17.8995 13.0095 17.9482 13.1373 17.9482C13.2651 17.9482 13.393 17.8994 13.4905 17.802C13.6855 17.6069 13.6855 17.2906 13.4905 17.0956L13.1612 16.7664C12.9662 16.5714 12.6499 16.5714 12.4549 16.7664Z" fill="black"/>
<path id="Vector_8" d="M25.0954 7.53006L23.4452 5.87992C23.3516 5.78633 23.2246 5.73373 23.0923 5.73373C22.9599 5.73373 22.8329 5.78633 22.7393 5.87992C22.4565 6.16277 22.0804 6.31859 21.6803 6.31859C21.2803 6.31859 20.9041 6.16277 20.6213 5.87992C20.0374 5.29595 20.0374 4.34578 20.6213 3.76181C20.8162 3.5669 20.8162 3.25086 20.6213 3.05595L18.9622 1.39688C18.0645 0.499216 16.6037 0.499216 15.7059 1.39688L7.26126 9.84167C7.16767 9.93526 7.11506 10.0622 7.11506 10.1946L7.11501 11.426H5.88359C5.75122 11.426 5.6243 11.4786 5.53066 11.5722L0.889253 16.2136C0.454371 16.6485 0.214844 17.2267 0.214844 17.8418C0.214844 18.4568 0.454371 19.035 0.889253 19.4699L2.54832 21.129C2.74328 21.324 3.05922 21.324 3.25423 21.129C3.53708 20.8461 3.91322 20.6903 4.31326 20.6903C4.71335 20.6903 5.08944 20.8461 5.37229 21.129C5.65519 21.4118 5.81097 21.788 5.81097 22.188C5.81097 22.5881 5.65519 22.9642 5.37229 23.2471C5.27871 23.3406 5.2261 23.4676 5.2261 23.6C5.2261 23.7324 5.27871 23.8593 5.37229 23.9529L7.02248 25.6031C7.47139 26.0519 8.06099 26.2764 8.6506 26.2764C9.24021 26.2764 9.82987 26.0519 10.2787 25.6031L14.9201 20.9616C15.0137 20.8681 15.0663 20.7411 15.0663 20.6087V19.3773H16.2978C16.4301 19.3773 16.557 19.3247 16.6507 19.2311L19.6687 16.2131C19.8636 16.0182 19.8636 15.7021 19.6687 15.5072C19.4737 15.3123 19.1578 15.3123 18.9628 15.5072L16.091 18.3791H14.5672C14.2916 18.3791 14.0681 18.6025 14.0681 18.8782V20.402L9.57288 24.8972C9.06442 25.4057 8.23688 25.4058 7.72838 24.8972L6.39608 23.565C6.66496 23.1601 6.80925 22.6852 6.80925 22.1881C6.80925 21.5214 6.54966 20.8946 6.07824 20.4232C5.60683 19.9518 4.98003 19.6921 4.31336 19.6921C3.81629 19.6921 3.34133 19.8365 2.93649 20.1053L1.59526 18.764C1.08675 18.2555 1.08675 17.428 1.59526 16.9195L6.09047 12.4243H7.61423C7.88985 12.4243 8.11335 12.2009 8.11335 11.9252L8.1134 10.4013L16.4119 2.10279C16.9204 1.59423 17.7478 1.59428 18.2563 2.10279L19.598 3.44442C18.9573 4.41301 19.0631 5.73348 19.9154 6.58582C20.3868 7.05724 21.0137 7.31683 21.6803 7.31683C22.1774 7.31683 22.6523 7.17249 23.0572 6.90366L24.3895 8.23591C24.898 8.74446 24.898 9.57195 24.3895 10.0805L22.138 12.3319C21.9431 12.5268 21.9431 12.8429 22.138 13.0378C22.333 13.2327 22.6489 13.2328 22.8439 13.0378L25.0954 10.7864C25.9931 9.88859 25.9931 8.42787 25.0954 7.53006Z" fill="black"/>
<path id="Vector_9" d="M15.2345 7.28788C14.969 7.3618 14.8136 7.63702 14.8875 7.90255L16.5067 13.7198C16.5681 13.9406 16.7687 14.0852 16.9872 14.0852C17.0316 14.0852 17.0766 14.0793 17.1214 14.0668C17.3869 13.9929 17.5423 13.7177 17.4684 13.4522L15.8492 7.63487C15.7753 7.36934 15.5002 7.21411 15.2345 7.28788Z" fill="black"/>
<path id="Vector_10" d="M18.0297 9.14761C17.4459 9.73148 17.4458 10.6815 18.0297 11.2655C18.3217 11.5574 18.7051 11.7033 19.0886 11.7033C19.4721 11.7033 19.8556 11.5574 20.1475 11.2654C20.7314 10.6815 20.7314 9.73148 20.1475 9.14761C19.8647 8.86476 19.4887 8.70898 19.0886 8.70898C18.6886 8.70898 18.3125 8.86476 18.0297 9.14761ZM19.4416 10.5596C19.247 10.7543 18.9302 10.7542 18.7356 10.5596C18.5409 10.3649 18.5409 10.0481 18.7356 9.85346C18.8299 9.75918 18.9552 9.70722 19.0886 9.70722C19.222 9.70722 19.3474 9.75918 19.4416 9.85346C19.6363 10.0481 19.6363 10.3649 19.4416 10.5596Z" fill="black"/>
<path id="Vector_11" d="M14.3663 9.32339C14.0834 9.04054 13.7074 8.88477 13.3074 8.88477C12.9073 8.88477 12.5313 9.04054 12.2484 9.32339C11.6646 9.90726 11.6646 10.8573 12.2484 11.4413C12.5404 11.7332 12.9238 11.8791 13.3074 11.8791C13.6909 11.8791 14.0743 11.7331 14.3663 11.4412C14.9502 10.8573 14.9501 9.90721 14.3663 9.32339ZM13.6604 10.7353C13.4657 10.93 13.149 10.93 12.9543 10.7353C12.7597 10.5406 12.7597 10.2239 12.9543 10.0292C13.0487 9.93491 13.174 9.88295 13.3074 9.88295C13.4407 9.88295 13.5661 9.93491 13.6604 10.0292C13.8551 10.2239 13.8551 10.5406 13.6604 10.7353Z" fill="black"/>
<path id="Vector_12" d="M8.04644 15.3386C7.85159 15.1437 7.53564 15.1437 7.34054 15.3386L5.64618 17.0329C5.45127 17.2278 5.45127 17.5439 5.64618 17.7388C5.74366 17.8363 5.87138 17.885 5.99911 17.885C6.12683 17.885 6.25456 17.8362 6.35203 17.7388L8.04639 16.0444C8.24135 15.8495 8.24135 15.5335 8.04644 15.3386Z" fill="black"/>
<path id="Vector_13" d="M7.55189 19.4387C7.67962 19.4387 7.80734 19.3899 7.90482 19.2925L9.59918 17.5981C9.79408 17.4032 9.79408 17.0872 9.59918 16.8923C9.40432 16.6974 9.08838 16.6974 8.89327 16.8923L7.19891 18.5866C7.00401 18.7815 7.00401 19.0976 7.19891 19.2925C7.29639 19.39 7.42412 19.4387 7.55189 19.4387Z" fill="black"/>
<path id="Vector_14" d="M9.10462 20.9914C9.2324 20.9914 9.36007 20.9426 9.45755 20.8452L11.1519 19.1509C11.3468 18.956 11.3468 18.6399 11.1519 18.445C10.9569 18.2501 10.641 18.2501 10.446 18.445L8.75165 20.1394C8.55674 20.3343 8.55674 20.6503 8.75165 20.8452C8.84918 20.9427 8.97685 20.9914 9.10462 20.9914Z" fill="black"/>
<path id="Vector_15" d="M20.9034 13.7734C20.7721 13.7734 20.6434 13.8268 20.5505 13.9197C20.4572 14.0125 20.4043 14.1413 20.4043 14.2725C20.4043 14.4038 20.4572 14.5326 20.5505 14.6254C20.6434 14.7182 20.7721 14.7716 20.9034 14.7716C21.0347 14.7716 21.1634 14.7182 21.2562 14.6254C21.349 14.5326 21.4025 14.4038 21.4025 14.2725C21.4025 14.1413 21.3491 14.0125 21.2562 13.9197C21.1634 13.8268 21.0347 13.7734 20.9034 13.7734Z" fill="black"/>
</g>
</svg>
